<svg width="124" height="100" viewBox="0 0 124 100" fill="none" xmlns="http://www.w3.org/2000/svg">
<rect width="100" height="100" rx="8" fill="white"/>
<path d="M62.96 49.2C66.2133 49.8933 68.8267 51.52 70.8 54.08C72.7733 56.5867 73.76 59.4667 73.76 62.72C73.76 67.4133 72.1067 71.1467 68.8 73.92C65.5467 76.64 60.9867 78 55.12 78H28.96V21.84H54.24C59.9467 21.84 64.4 23.1467 67.6 25.76C70.8533 28.3733 72.48 31.92 72.48 36.4C72.48 39.7067 71.6 42.4533 69.84 44.64C68.1333 46.8267 65.84 48.3467 62.96 49.2ZM42.64 44.56H51.6C53.84 44.56 55.5467 44.08 56.72 43.12C57.9467 42.1067 58.56 40.64 58.56 38.72C58.56 36.8 57.9467 35.3333 56.72 34.32C55.5467 33.3067 53.84 32.8 51.6 32.8H42.64V44.56ZM52.72 66.96C55.0133 66.96 56.7733 66.4533 58 65.44C59.28 64.3733 59.92 62.8533 59.92 60.88C59.92 58.9067 59.2533 57.36 57.92 56.24C56.64 55.12 54.8533 54.56 52.56 54.56H42.64V66.96H52.72Z" fill="black"/>
</svg>
