<svg width="137" height="35" viewBox="0 0 137 35" fill="none" xmlns="http://www.w3.org/2000/svg">
<path d="M17.48 19.6C19.1067 19.9467 20.4133 20.76 21.4 22.04C22.3867 23.2933 22.88 24.7333 22.88 26.36C22.88 28.7067 22.0533 30.5733 20.4 31.96C18.7733 33.32 16.4933 34 13.56 34H0.48V5.92H13.12C15.9733 5.92 18.2 6.57333 19.8 7.88C21.4267 9.18667 22.24 10.96 22.24 13.2C22.24 14.8533 21.8 16.2267 20.92 17.32C20.0667 18.4133 18.92 19.1733 17.48 19.6ZM7.32 17.28H11.8C12.92 17.28 13.7733 17.04 14.36 16.56C14.9733 16.0533 15.28 15.32 15.28 14.36C15.28 13.4 14.9733 12.6667 14.36 12.16C13.7733 11.6533 12.92 11.4 11.8 11.4H7.32V17.28ZM12.36 28.48C13.5067 28.48 14.3867 28.2267 15 27.72C15.64 27.1867 15.96 26.4267 15.96 25.44C15.96 24.4533 15.6267 23.68 14.96 23.12C14.32 22.56 13.4267 22.28 12.28 22.28H7.32V28.48H12.36ZM48.8872 11.68V34H42.0472V30.96C41.3539 31.9467 40.4072 32.7467 39.2072 33.36C38.0339 33.9467 36.7272 34.24 35.2872 34.24C33.5805 34.24 32.0739 33.8667 30.7672 33.12C29.4605 32.3467 28.4472 31.24 27.7272 29.8C27.0072 28.36 26.6472 26.6667 26.6472 24.72V11.68H33.4472V23.8C33.4472 25.2933 33.8339 26.4533 34.6072 27.28C35.3805 28.1067 36.4205 28.52 37.7272 28.52C39.0605 28.52 40.1139 28.1067 40.8872 27.28C41.6605 26.4533 42.0472 25.2933 42.0472 23.8V11.68H48.8872ZM62.8803 34.32C60.9336 34.32 59.2003 33.9867 57.6803 33.32C56.1603 32.6533 54.9603 31.7467 54.0803 30.6C53.2003 29.4267 52.707 28.12 52.6003 26.68H59.3603C59.4403 27.4533 59.8003 28.08 60.4403 28.56C61.0803 29.04 61.867 29.28 62.8003 29.28C63.6536 29.28 64.307 29.12 64.7603 28.8C65.2403 28.4533 65.4803 28.0133 65.4803 27.48C65.4803 26.84 65.147 26.3733 64.4803 26.08C63.8136 25.76 62.7336 25.4133 61.2403 25.04C59.6403 24.6667 58.307 24.28 57.2403 23.88C56.1736 23.4533 55.2536 22.8 54.4803 21.92C53.707 21.0133 53.3203 19.8 53.3203 18.28C53.3203 17 53.667 15.84 54.3603 14.8C55.0803 13.7333 56.1203 12.8933 57.4803 12.28C58.867 11.6667 60.507 11.36 62.4003 11.36C65.2003 11.36 67.4003 12.0533 69.0003 13.44C70.627 14.8267 71.5603 16.6667 71.8003 18.96H65.4803C65.3736 18.1867 65.027 17.5733 64.4403 17.12C63.8803 16.6667 63.1336 16.44 62.2003 16.44C61.4003 16.44 60.787 16.6 60.3603 16.92C59.9336 17.2133 59.7203 17.6267 59.7203 18.16C59.7203 18.8 60.0536 19.28 60.7203 19.6C61.4136 19.92 62.4803 20.24 63.9203 20.56C65.5736 20.9867 66.9203 21.4133 67.9603 21.84C69.0003 22.24 69.907 22.9067 70.6803 23.84C71.4803 24.7467 71.8936 25.9733 71.9203 27.52C71.9203 28.8267 71.547 30 70.8003 31.04C70.0803 32.0533 69.027 32.8533 67.6403 33.44C66.2803 34.0267 64.6936 34.32 62.8803 34.32ZM74.745 22.84C74.745 20.52 75.2117 18.4933 76.145 16.76C77.105 15.0267 78.425 13.6933 80.105 12.76C81.8117 11.8267 83.7583 11.36 85.945 11.36C88.745 11.36 91.0783 12.0933 92.945 13.56C94.8383 15.0267 96.0783 17.0933 96.665 19.76H89.385C88.7717 18.0533 87.585 17.2 85.825 17.2C84.5717 17.2 83.5717 17.6933 82.825 18.68C82.0783 19.64 81.705 21.0267 81.705 22.84C81.705 24.6533 82.0783 26.0533 82.825 27.04C83.5717 28 84.5717 28.48 85.825 28.48C87.585 28.48 88.7717 27.6267 89.385 25.92H96.665C96.0783 28.5333 94.8383 30.5867 92.945 32.08C91.0517 33.5733 88.7183 34.32 85.945 34.32C83.7583 34.32 81.8117 33.8533 80.105 32.92C78.425 31.9867 77.105 30.6533 76.145 28.92C75.2117 27.1867 74.745 25.16 74.745 22.84ZM98.9638 22.8C98.9638 20.5067 99.3904 18.4933 100.244 16.76C101.124 15.0267 102.31 13.6933 103.804 12.76C105.297 11.8267 106.964 11.36 108.804 11.36C110.377 11.36 111.75 11.68 112.924 12.32C114.124 12.96 115.044 13.8 115.684 14.84V11.68H122.524V34H115.684V30.84C115.017 31.88 114.084 32.72 112.884 33.36C111.71 34 110.337 34.32 108.764 34.32C106.95 34.32 105.297 33.8533 103.804 32.92C102.31 31.96 101.124 30.6133 100.244 28.88C99.3904 27.12 98.9638 25.0933 98.9638 22.8ZM115.684 22.84C115.684 21.1333 115.204 19.7867 114.244 18.8C113.31 17.8133 112.164 17.32 110.804 17.32C109.444 17.32 108.284 17.8133 107.324 18.8C106.39 19.76 105.924 21.0933 105.924 22.8C105.924 24.5067 106.39 25.8667 107.324 26.88C108.284 27.8667 109.444 28.36 110.804 28.36C112.164 28.36 113.31 27.8667 114.244 26.88C115.204 25.8933 115.684 24.5467 115.684 22.84ZM134.832 11.68V34H127.992V11.68H134.832ZM136.072 6.12L126.432 10.16V5.44L136.072 0.799998V6.12Z" fill="black"/>
</svg>
