<svg width="655" height="655" viewBox="0 0 655 655" fill="none" xmlns="http://www.w3.org/2000/svg">
<path fill-rule="evenodd" clip-rule="evenodd" d="M85.8328 46.957C86.9513 50.6364 91.2071 65.423 91.6476 67.1588C91.9456 68.3362 92.3976 69.5283 92.6514 69.8083C93.2802 70.5009 93.2425 68.7079 92.5843 66.661C91.7377 64.0213 87.883 50.7789 87.2395 48.2948C86.9152 47.0454 86.4027 46.0219 86.0998 46.0219C85.7968 46.0219 85.6773 46.4428 85.8328 46.957ZM163.215 54.1292C134.2 56.3546 107.237 76.2551 95.7233 103.939C77.3359 148.156 98.6512 199.13 142.43 215.637C145.474 216.785 148.135 218.041 148.344 218.429C149.315 220.232 155.893 242.866 155.859 244.287C155.818 245.974 161.9 270.923 162.73 272.475C163.328 273.594 167.809 275.311 174.449 276.972C177.579 277.753 179.791 278.606 180.209 279.19C184.674 285.442 190.205 288.167 198.431 288.167H204.499L205.749 290.239C211.162 299.207 207.606 310.812 194.985 325.36C194.347 326.095 191.787 329.036 189.295 331.893C175.511 347.708 169.598 361.837 171.21 375.1C172.154 382.857 175.82 391.371 179.124 393.478C180.805 394.549 180.88 395.854 179.477 399.561C178.713 401.574 175.702 410.485 172.782 419.365C165.926 440.212 163.098 446.64 157.061 455.101C145.952 470.667 123.449 480.826 104.939 478.633C100.778 478.14 99.0982 478.448 101.987 479.173C110.995 481.433 129.87 477.626 140.265 471.451C155.788 462.229 163.814 450.26 172.558 423.289C175.108 415.422 178.009 406.881 181.055 398.271C181.807 396.149 181.839 396.149 185.047 398.122C203.179 409.278 236.696 391.3 229.14 374.47C221.349 357.113 196.926 365.372 184.07 389.712L181.532 394.515L179.463 392.438C172.506 385.451 169.963 370.512 173.811 359.222C177.459 348.517 181.987 341.638 195.729 325.925C208.319 311.526 211.879 300.707 207.208 291.035C205.108 286.69 205.094 287.068 207.42 285.965C211.305 284.121 217.263 276.525 217.263 273.417C217.263 272.924 218.939 271.126 220.987 269.42C225.435 265.714 229.039 261.432 229.027 259.868C229.021 259.246 228.647 256.568 228.195 253.919C224.177 230.342 224.159 232.31 228.385 233.244C230.067 233.616 234.765 234.611 238.826 235.454C242.885 236.299 248.785 237.835 251.936 238.867C258.735 241.096 262.766 242.155 276.662 245.363C282.402 246.688 294.442 250.081 303.419 252.9C333.248 262.272 339.392 264.019 344.722 264.646L347.762 265.005L351.252 270.165C357.266 279.059 356.454 282.328 346.199 290.484C342.398 293.506 337.52 299.586 335.389 303.954C334.456 305.867 331.836 309.72 329.567 312.517C325.114 318.004 309.479 337.135 304.166 343.595C290.933 359.685 289.926 367.429 298.403 387.876C303.699 400.652 313.097 418.512 320.077 429.071C327.174 439.803 331.98 446.299 332.825 446.299C336.028 446.299 342.696 443.348 348.81 439.225C350.965 437.771 353.073 436.713 353.492 436.875C354.493 437.258 354.471 439.033 353.456 439.875C351.146 441.793 351.347 444.131 354.271 449.353L357.031 454.28L354.805 459.974C353.58 463.106 352.655 465.728 352.749 465.802C352.842 465.874 354.424 466.943 356.263 468.176C360.743 471.181 361.416 475.193 357.17 473.58C352.677 471.87 350.975 479.979 354.773 485.008C358.522 489.974 357.566 492.02 352.195 490.511C344.129 488.248 336.426 491.627 332.861 498.989C331.035 502.762 335.809 509.721 343.909 515.099C345.454 516.124 346.826 517.137 346.958 517.35C347.091 517.565 339.721 517.666 330.582 517.576C319.439 517.466 313.779 517.599 313.401 517.977C313.006 518.374 332.349 518.542 378.069 518.542C422.578 518.542 443.129 518.367 442.754 517.994C442.39 517.628 431.881 517.494 411.342 517.592C382.936 517.727 378.326 517.596 381.682 516.747C384.437 516.052 387.716 513.355 389.307 510.476L390.912 507.571L391.192 496.066L391.472 484.561L393.192 481.176C394.138 479.314 396.377 475.602 398.166 472.926C410.942 453.827 408.001 440.876 389.786 436.004C387.973 435.518 387.434 435.121 387.434 434.273C387.434 430.004 381.069 423.402 376.055 422.47C374.275 422.139 373.823 421.709 372.176 418.761C369.808 414.527 369.785 414.785 373.155 407.643C374.721 404.328 376.564 400.207 377.254 398.484L378.506 395.353L376.684 393.935C375.682 393.156 373.656 391.435 372.184 390.11C370.712 388.785 367.34 385.897 364.691 383.692C362.043 381.487 358.056 378.115 355.834 376.201C353.61 374.285 348.124 369.612 343.641 365.816C339.159 362.018 335.56 358.721 335.643 358.486C335.866 357.856 374.463 338.496 377.18 337.651C379.933 336.796 381.072 337.289 381.68 339.596C391.173 375.67 398.024 391.323 417.16 420.669C419.58 424.379 423.901 431.123 426.764 435.654C441.201 458.503 444.675 463.358 456.727 477.546C463.992 486.098 477.837 500.073 479.47 500.5C481.422 501.011 486.401 495.15 502.221 473.724C507.261 466.897 510.124 467.028 507.512 473.965C505.311 479.812 505.588 481.065 510.139 485.827C521.287 497.492 522.916 499.621 520.147 498.897C519.204 498.65 519.076 498.881 519.076 500.842C519.076 502.066 518.694 506.2 518.228 510.03C517.172 518.691 516.672 517.832 524.414 520.682C531.613 523.333 531.621 523.342 532.168 527.85L532.551 531.002L530.764 530.617C525.025 529.379 525.11 529.356 523.638 532.52C520.582 539.083 522.479 545.405 528.865 549.938C532.926 552.822 534.182 554.564 534.488 557.742C534.855 561.567 534.375 561.807 526.964 561.482C514.866 560.952 506.287 565.09 501.715 573.66C497.075 582.359 496.886 582.848 496.878 586.29C496.867 590.656 497.579 591.588 504.935 596.803C519.137 606.874 532.145 610.953 541.285 608.203C542.846 607.733 544.2 607.607 544.716 607.883C545.607 608.361 572.629 600.795 579.727 598.082C598.845 590.774 603.469 579.813 596.916 557.338C590.726 536.103 590.769 532.877 597.489 514.195C604.416 494.939 606.073 484.61 603.723 475.324C600.476 462.484 592.551 454.526 581.737 453.244C579.501 452.978 576.831 452.505 575.801 452.191C574.771 451.876 571.768 451.66 569.126 451.711L564.323 451.803L562.904 449.055C558.348 440.239 549.34 434.294 540.449 434.237L535.331 434.206L531.424 430.093L527.517 425.979L528.42 423.723C530.828 417.705 540.472 381.894 539.851 381.274C539.658 381.081 535.325 379.492 530.224 377.743C511.337 371.269 507.966 370.104 501.686 367.882C483.233 361.354 473.35 357.406 458.723 350.715C453.931 348.522 447.429 345.63 444.275 344.289C436.033 340.782 433.61 339.355 432.39 337.286C430.9 334.762 430.789 334.921 435.997 332.201C444.838 327.584 447.892 326.82 459.142 326.414C469.579 326.036 470.965 325.781 474.832 323.514C480.903 319.958 484.464 313.776 484.744 306.307L484.926 301.438L482.394 301.09C481.002 300.899 478.477 300.743 476.786 300.743C463.275 300.743 443.199 292.818 430.391 282.426C425.041 278.087 401.538 254.21 400.878 252.445C400.646 251.823 401.189 251.89 417.395 254.508L428.894 256.367L437.73 260.967C442.59 263.497 448.493 266.66 450.848 267.998C459.998 273.199 462.947 274.756 472.378 279.376C477.744 282.004 482.257 284.154 482.407 284.154C482.558 284.154 486.956 286.438 492.183 289.228C504.658 295.89 506.741 298.172 510.237 309.011C512.32 315.463 515.136 319.371 519.611 322.014C526.091 325.843 531.099 323.978 530.144 318.094C529.787 315.892 529.125 315.586 537.806 321.631C550.827 330.698 554.114 331.653 558.204 327.562C562.625 323.143 559.915 317.97 550.295 312.466C547.405 310.814 547.179 309.872 549.666 309.849C553.673 309.812 554.392 302.258 550.704 298.921C549.367 297.709 549.262 296.998 550.423 296.998C554.462 296.998 555.636 290.651 552.149 287.666L549.902 285.742L551.074 284.92C555.15 282.066 552.966 276.891 546.637 274.411C545.459 273.949 538.595 271.604 531.385 269.202C522.199 266.14 515.47 263.493 508.909 260.364C503.759 257.906 495.812 254.107 491.25 251.923C486.688 249.738 478.982 245.713 474.125 242.977C469.27 240.243 461.443 235.831 456.735 233.177C433.523 220.087 434.059 220.252 405.095 217.293C368.714 213.577 359.046 213.152 350.644 214.896C349.081 215.22 348.905 215.131 348.905 214.021C348.905 213.34 348.512 211.387 348.034 209.679L347.161 206.572L349.223 204.024C350.356 202.623 352.819 199.911 354.694 197.998C374.414 177.875 377.38 147.133 359.742 145.657C358.197 145.53 356.932 145.2 356.932 144.929C356.932 143.448 365.909 137.529 370.602 135.914C374.367 134.621 375.71 133.597 372.97 134.111C368.117 135.025 357.442 141.47 356.428 144.1C355.84 145.623 355.531 144.791 355.084 140.479C353.512 125.298 335.118 121.679 322.807 134.129C320.667 136.294 318.654 138.064 318.332 138.064C317.696 138.064 317.963 131.87 318.697 129.554L319.105 128.269L316.871 129.525C307.678 134.691 300.73 146.499 303.622 152.04C304.189 153.126 304.292 155.377 304.08 161.995C303.82 170.172 303.873 170.768 305.282 175.578C306.093 178.343 307.059 182.534 307.431 184.887C310.01 201.216 317.98 211.547 329.571 213.589C333.126 214.214 332.812 213.697 334.72 222.079C336.223 228.687 337.631 228.613 319.059 222.898C303.417 218.086 294.757 215.672 285.492 213.543C281.666 212.664 275.305 210.974 271.355 209.788C267.405 208.601 263.783 207.63 263.307 207.63C262.755 207.63 261.119 205.285 258.825 201.209C252.326 189.665 246.527 183.136 241.287 181.46L239.36 180.842L242.212 175.106C253.819 151.768 253.921 123.471 242.481 99.9301C227.637 69.3825 196.783 51.5534 163.215 54.1292ZM179.514 55.4359C226.823 61.2163 258.895 108.193 248.05 155.82C245.433 167.308 239.764 179.775 236.25 181.766C233.933 183.081 233.008 184.494 232.484 187.523C232.099 189.752 225.024 197.635 219.721 201.745C216.633 204.137 216.631 204.021 219.975 226.266C220.669 230.883 219.946 232.355 214.609 237.185C200.564 249.897 182.706 252.725 162.948 245.366C156.214 242.858 157.308 244.536 153.049 230.187C148.677 215.461 149.55 217.067 145.148 215.649C122.305 208.29 102.743 188.422 94.4969 164.205C75.0024 106.965 120.879 48.2702 179.514 55.4359ZM50.3875 59.9227C50.7756 61.0886 84.3214 82.2827 84.8847 81.7194C85.1647 81.4378 85.9409 81.9503 66.9148 69.8525C48.3161 58.0248 50.1157 59.1072 50.3875 59.9227ZM447.111 86.1751C414.258 89.9217 394.698 114.882 406.807 137.609L409.021 141.762L407.299 148.341C405.019 157.044 404.777 158.634 405.789 158.246C406.878 157.829 415.67 151.546 416.069 150.901C416.649 149.962 417.684 150.323 422.19 153.031C449.63 169.522 491.785 161.138 504.039 136.754C517.674 109.619 486.264 81.7096 447.111 86.1751ZM465.305 87.4736C497.296 92.0226 515.228 117.486 501.622 139.042C487.443 161.508 446.366 167.824 421.417 151.375L417.415 148.736L412.411 152.497C405.925 157.372 405.93 157.374 407.829 150.506C410.274 141.67 410.287 141.37 408.36 138.331C391.464 111.691 424.998 81.7407 465.305 87.4736ZM74.3834 97.4345C65.4689 98.5595 58.8649 99.7156 58.8649 100.15C58.8649 100.412 59.4069 100.505 60.0684 100.356C61.5029 100.037 71.1887 98.6807 75.7213 98.1632C79.07 97.7833 81.7424 96.845 79.1993 96.9433C78.4641 96.9711 76.296 97.1922 74.3834 97.4345ZM429.305 109.475C429.806 109.976 476.809 110.124 477.117 109.624C477.272 109.372 466.509 109.167 453.198 109.167C439.887 109.167 429.135 109.305 429.305 109.475ZM429.176 122.01C429.176 122.359 437.47 122.546 452.988 122.546C468.507 122.546 476.801 122.359 476.801 122.01C476.801 121.661 468.507 121.475 452.988 121.475C437.47 121.475 429.176 121.661 429.176 122.01ZM186.745 129.708C182.221 131.447 178.804 133.609 176.036 136.481L173.066 139.564L170.682 137.751C155.649 126.32 133.651 136.821 132.818 155.828C132.295 167.737 135.901 172.874 154.238 186.352C169.892 197.859 178.636 212.71 180.081 230.241C180.292 232.815 180.711 234.922 181.011 234.922C181.861 234.922 180.988 226.411 179.565 220.814C175.694 205.59 167.21 194.006 152.245 183.513C138.094 173.59 134.051 167.768 134.051 157.318C134.051 138.79 152.389 128.108 168.353 137.339C172.371 139.661 172.547 140.114 170.744 143.456C163.347 157.157 164.079 168.834 172.334 168.834C181.492 168.834 183.243 153.53 175.348 142.464L173.716 140.175L176.596 137.259C192.252 121.404 214.881 132.507 214.774 155.99C214.729 166.002 212.304 172.75 202.688 189.608C190.839 210.378 188.367 217.07 188.367 228.367C188.367 231.973 188.586 234.922 188.854 234.922C189.123 234.922 189.328 232.214 189.308 228.903C189.243 218.248 192.008 210.296 201.447 193.985C214.028 172.247 217.3 162.453 215.682 151.38C213.392 135.734 199.038 124.982 186.745 129.708ZM429.709 134.318C429.709 134.66 434.17 134.853 442.019 134.853C449.867 134.853 454.326 134.66 454.326 134.318C454.326 133.977 449.867 133.782 442.019 133.782C434.17 133.782 429.709 133.977 429.709 134.318ZM174.274 142.746C181.797 152.243 180.61 168.03 172.371 168.03C165.419 168.03 164.868 158.723 171.009 145.038C172.545 141.618 173.08 141.241 174.274 142.746ZM314.675 161.032C321.864 163.557 330.413 163.645 338.612 161.279C341.045 160.578 343.359 160.003 343.755 160.003C344.83 160.003 345.272 166.707 344.633 173.341C344.338 176.41 344.216 179.038 344.36 179.183C344.877 179.699 345.362 178.681 345.66 176.457C345.886 174.764 346.228 174.148 347.027 173.994C347.612 173.881 348.409 173.338 348.796 172.784C349.706 171.486 351.268 171.433 350.906 172.714C350.761 173.228 350.551 173.981 350.441 174.386C350.333 174.79 350.545 175.232 350.911 175.366C351.917 175.735 351.782 171.541 350.762 170.693C350.083 170.13 349.708 170.233 348.557 171.297L347.168 172.579L348.311 170.313C351.912 163.174 356.805 167.307 355.341 176.252C355.059 177.978 353.731 181.74 352.388 184.608C349.762 190.228 348.394 195.498 348.38 200.057C348.368 203.721 347.31 205.51 343.416 208.444C328.224 219.9 310.837 207.145 308.196 182.607C307.563 176.742 307.683 176.259 309.835 175.969C311.246 175.781 311.754 174.666 310.978 173.46C310.609 172.887 310.267 172.868 309.334 173.367C308.238 173.953 308.169 173.893 308.33 172.486C308.453 171.412 308.813 170.958 309.573 170.919C310.162 170.889 311.14 170.829 311.746 170.786C315.54 170.513 315.245 166.961 311.428 166.961C308.957 166.961 308.813 166.455 310.159 162.507C311.143 159.617 310.886 159.7 314.675 161.032ZM316.625 169.313C316.08 170.732 320.927 173.917 323.634 173.917C325.525 173.917 326.77 172.565 325.874 171.482C323.955 169.164 317.284 167.598 316.625 169.313ZM319.511 174.43C318.625 174.977 319.141 176.593 320.202 176.593C320.621 176.593 321.096 176.249 321.256 175.83C321.646 174.818 320.442 173.853 319.511 174.43ZM352.241 175.925C352.274 176.439 352.121 177.402 351.904 178.065C351.681 178.743 351.73 179.269 352.015 179.269C352.717 179.269 353.903 176.249 353.474 175.555C352.924 174.666 352.177 174.89 352.241 175.925ZM244.199 183.94C248.199 186.713 252.132 191.881 258.226 202.362L261.731 208.395L259.406 210.555C253.153 216.365 250.755 222.643 250.873 232.916C250.926 237.56 251.089 237.428 246.73 236.275C245.093 235.841 239.809 234.637 234.988 233.602C223.157 231.059 221.862 230.382 220.989 226.266C220.522 224.069 220.486 222.923 220.873 222.536C221.257 222.151 221.215 221.565 220.73 220.632C220.345 219.89 219.861 217.806 219.654 215.999C219.448 214.192 219.201 212.294 219.104 211.778C218.908 210.722 219.748 210.592 221.776 211.364C224.082 212.24 223.304 211.129 220.742 209.885C218.442 208.768 218.333 208.611 218.333 206.413C218.333 203.283 222.852 199.495 224.888 200.921C226.196 201.838 226.895 201.969 226.895 201.3C226.895 201.056 226.284 200.528 225.538 200.129L224.179 199.402L228.326 195.229L232.474 191.057L233.856 194.93C236.532 202.426 246.804 214.716 248.726 212.719C248.934 212.505 248.504 211.935 247.77 211.452C239.036 205.699 231.51 191.506 234.028 185.539C235.605 181.803 240.097 181.098 244.199 183.94ZM311.446 183.443C311.446 184.939 312.276 186.225 313.241 186.225C313.522 186.225 313.334 185.765 312.825 185.2C312.083 184.381 312.016 183.949 312.492 183.059C312.977 182.154 312.934 181.944 312.268 181.944C311.724 181.944 311.446 182.452 311.446 183.443ZM321.078 190.985C321.078 193.196 320.501 193.718 318.06 193.718C317.313 193.718 316.879 193.95 317.064 194.252C317.56 195.054 319.614 194.897 320.96 193.955C322.201 193.084 322.743 188.9 321.613 188.9C321.318 188.9 321.078 189.839 321.078 190.985ZM347.751 212.831C348.403 215.885 348.496 215.718 345.025 217.676C342.339 219.192 338.489 222.846 337.258 225.048C336.475 226.445 336.266 226.068 335.897 222.615L335.583 219.671L338.096 218.09C339.48 217.223 341.935 215.133 343.554 213.448C347.145 209.711 347.088 209.72 347.751 212.831ZM288.167 215.174C293.324 216.376 301.279 218.639 322.191 224.858L335.345 228.769L335.324 233.584C335.291 240.97 338.53 250.482 344.327 260.025C345.373 261.748 346.23 263.315 346.23 263.507C346.23 264.751 333.783 261.504 312.517 254.711C293.582 248.666 285.279 246.211 279.171 244.859C274.173 243.75 274.211 243.819 274.971 237.159C275.984 228.287 280.782 214.054 282.76 214.052C283.086 214.051 285.519 214.557 288.167 215.174ZM374.316 215.39C409.124 218.462 428.54 220.633 432.262 221.87C437.245 223.524 445.536 227.888 468.942 241.176C473.411 243.712 479.357 246.991 482.152 248.458C489.116 252.113 488.862 251.785 488.135 256.185C486.685 264.974 483.727 271.213 477.919 277.733L475.774 280.14L468.127 276.189C463.922 274.014 455.993 269.745 450.511 266.701C432.664 256.793 429.534 255.458 420.613 253.948C405.835 251.451 380.167 247.687 371.113 246.689C366.913 246.228 359.382 244.207 358.108 243.2C358.02 243.129 358.802 240.95 359.847 238.358C362.118 232.728 362.1 232.964 360.358 231.349C359.222 230.296 359.046 229.795 359.392 228.611C360.132 226.08 359.823 224.059 358.069 219.972C355.452 213.876 355.855 213.761 374.316 215.39ZM354.768 217.932C355.141 219.183 356.043 221.385 356.774 222.824C357.99 225.23 358.044 225.636 357.438 227.799C356.808 230.056 356.841 230.221 358.234 231.675L359.69 233.195L355.331 245.697C352.934 252.575 350.813 258.561 350.618 259.003C349.976 260.451 349.891 253.508 350.474 247.469C351.208 239.876 351.234 218.513 350.51 218.066C349.65 217.534 349.894 216.292 350.911 216.027C353.523 215.344 354.075 215.616 354.768 217.932ZM192.647 226.36C192.647 226.674 194.51 226.895 197.17 226.895C220.941 226.895 209.233 242.846 184.353 244.356C167.384 245.384 162.345 237.251 176.331 231.407C177.89 230.755 178.913 229.571 177.916 229.571C176.884 229.571 170.96 233.1 169.439 234.621C157.858 246.201 189.503 249.652 206.507 238.662C216.273 232.35 211.619 225.824 197.351 225.824C194.571 225.824 192.647 226.044 192.647 226.36ZM361.748 245.625C363.89 246.508 366.402 247.23 367.331 247.23C368.627 247.23 370.915 248.595 377.195 253.117C386.922 260.12 386.024 259.956 386.815 254.872C387.169 252.599 387.636 250.562 387.852 250.344C388.21 249.986 393.987 250.562 396.94 251.253C397.606 251.409 401.219 254.711 404.967 258.594C408.715 262.477 414.672 268.642 418.204 272.295C437.717 292.476 454.929 300.607 481.083 302.004L483.49 302.132L483.652 305.852C484.189 318.253 475.97 324.887 459.41 325.419C448.664 325.763 446.669 326.175 439.151 329.604C431.617 333.041 410.646 318.153 395.484 298.603C389.646 291.075 388.376 289.566 388.957 290.843C394.349 302.707 400.131 321.828 402.414 335.347C403.901 344.162 404.05 343.557 400.411 343.534C388.405 343.461 377.213 336.298 369.919 324.022C365.231 316.131 363.152 313.566 359.34 310.983C352.205 306.142 341.887 302.341 338.317 303.237C334.88 304.1 342.233 294.341 348.499 289.723C357.08 283.399 358.314 278.164 352.945 270.869C348.959 265.455 348.914 266.724 353.518 254.728C355.778 248.838 357.677 244.02 357.741 244.02C357.804 244.02 359.606 244.742 361.748 245.625ZM493.711 254.178L496.441 255.334L495.681 258.619C494.035 265.742 489.545 274.989 484.856 280.91C482.855 283.437 482.748 283.456 479.67 281.919C476.788 280.481 476.789 280.371 479.709 277.126C484.173 272.159 487.738 264.234 489.134 256.161C489.537 253.832 489.986 252.606 490.374 252.768C490.708 252.909 492.211 253.542 493.711 254.178ZM547.921 276.1C550.747 277.543 551.826 278.976 551.826 281.28C551.826 284.735 548.24 285.801 543.961 283.62C541.533 282.382 540.639 282.249 541.47 283.251C541.993 283.882 543.604 284.679 549.493 287.224C553.37 288.899 554.641 292.52 552.162 294.83C550.203 296.653 548.138 296.684 543.27 294.96C537.265 292.834 537.96 293.948 544.246 296.525C551.978 299.695 554.423 304.01 550.634 307.798C548.49 309.941 546.851 309.651 539.211 305.783C534.64 303.47 531.38 302.312 533.034 303.591C533.396 303.871 537.853 306.399 541.299 308.279C559.602 318.266 564.029 324.801 555.017 328.535C552.612 329.531 549.709 328.468 543.802 324.431C540.946 322.478 536.08 319.216 532.99 317.18C529.9 315.145 526.343 312.762 525.086 311.886C521.747 309.56 521.092 310.334 524.365 312.738C531.809 318.202 530.532 325.117 522.6 322.285C517.213 320.362 513.196 315.469 511.065 308.235C509.518 302.983 507.176 298.642 504.288 295.67C501.417 292.716 501.416 292.623 504.227 291.388C509.994 288.857 515.007 281.702 516.993 273.168C518.88 265.064 516.942 265.385 532.497 270.597C539.92 273.083 546.861 275.56 547.921 276.1ZM216.193 273.469C216.193 276.475 210.447 283.251 205.978 285.516C198.555 289.277 186.29 286.544 182.481 280.281C181.162 278.111 180.967 278.18 186.405 278.883C194.545 279.932 208.475 277.466 213.785 274.032C215.647 272.829 216.193 272.701 216.193 273.469ZM358.809 287.553C358.287 289.258 356.878 300.365 357.108 300.964C357.394 301.709 366.965 306.095 368.305 306.095C369.51 306.095 369.761 304.437 369.769 296.419L369.775 289.15L366.965 289.368C364.74 289.541 363.622 289.312 361.576 288.262C359.88 287.391 358.933 287.149 358.809 287.553ZM362.089 289.77C362.932 290.209 364.773 290.571 366.179 290.573L368.736 290.576L368.587 297.666C368.411 305.975 368.754 305.711 362.102 302.639C357.578 300.548 357.709 300.815 358.552 295.392C359.667 288.226 359.534 288.437 362.089 289.77ZM346.642 305.61C355.727 308.736 361.483 312.916 359.562 314.994C357.82 316.881 347.661 326.177 344.438 328.838C343.012 330.015 341.568 331.237 341.227 331.551C339.259 333.379 328.145 341.502 321.82 345.735C309.768 353.802 306.946 357.345 306.915 364.449C306.884 371.496 309.021 374.942 320.498 386.365C325.674 391.515 330.361 396.619 330.913 397.706L331.916 399.683L327.733 404.662C325.432 407.402 321.944 412.106 319.981 415.118C316.707 420.14 316.345 420.518 315.622 419.667C313.003 416.591 302.484 395.563 298.429 385.294C290.506 365.233 292.048 358.873 309.846 338.203C311.493 336.29 314.384 332.797 316.27 330.443C318.155 328.088 321.034 324.597 322.668 322.684C324.302 320.772 326.116 318.566 326.703 317.783C337.246 303.701 338.632 302.854 346.642 305.61ZM365.054 318.269C366.364 320.256 368.498 323.673 369.798 325.864C371.098 328.055 373.417 331.201 374.948 332.855L377.734 335.863L355.83 346.8C341.013 354.198 333.97 357.982 334.058 358.5C334.183 359.223 336.2 361.002 351.042 373.478C356.572 378.127 358.57 380.478 356.99 380.478C355.138 380.478 338.573 392.779 335.142 396.702C332.995 399.157 332.881 399.147 331.25 396.383C330.516 395.14 325.789 390.03 320.747 385.027C309.473 373.843 307.359 370.394 307.821 363.946C308.305 357.163 310.58 354.606 324.557 345.119C336.781 336.822 351.578 324.81 359.05 317.113C362.113 313.96 362.231 313.981 365.054 318.269ZM431.576 337.656C433.029 339.956 436.295 342.079 442.019 344.438C443.931 345.226 448.628 347.299 452.453 349.041C470.49 357.26 478.292 360.443 497.404 367.378C503.29 369.513 508.046 371.408 507.97 371.586C507.897 371.765 505.612 373.899 502.896 376.329C492.187 385.905 484.841 394.281 477.899 404.826C475.769 408.063 473.956 410.785 473.871 410.873C473.508 411.25 459.984 401.911 452.471 396.097C435.256 382.771 413.233 360.535 404.428 347.587C402.502 344.758 402.542 344.625 405.301 344.625C408.989 344.625 416.478 342.187 423.243 338.786C430.789 334.992 429.963 335.103 431.576 337.656ZM386.481 341.145C389.884 342.704 397.036 344.625 399.435 344.625C400.893 344.625 401.466 345.134 404.099 348.771C419.161 369.577 444.629 393.278 468.641 408.833C473.858 412.214 473.668 411.263 470.424 417.754C462.296 434.023 457.609 451.02 456.168 469.466C455.967 472.054 455.634 474.1 455.433 474.015C453.265 473.095 439.615 454.121 429.477 437.94C425.951 432.313 423.428 428.36 417.047 418.473C400.724 393.178 393.616 378.339 387.698 357.199C386.709 353.667 385.286 348.732 384.537 346.23C383.272 342 382.869 339.807 383.357 339.807C383.468 339.807 384.875 340.41 386.481 341.145ZM219.875 367.448C227.63 369.952 231.384 378.467 227.915 385.684C222.135 397.708 199.375 404.166 186.131 397.541C182.044 395.496 182.054 395.556 184.926 390.234C194.682 372.164 207.866 363.569 219.875 367.448ZM523.507 376.473C538.503 381.564 538.028 381.338 536.227 382.543C508.211 401.286 485.15 446.003 479.406 492.722C479.034 495.738 478.5 498.206 478.219 498.206C477.665 498.206 469.216 489.807 461.579 481.667L456.854 476.632L457.228 469.91C459.255 433.443 476.874 399.465 506.711 374.488C508.362 373.106 509.796 371.961 509.898 371.945C509.999 371.929 516.124 373.967 523.507 376.473ZM366.924 387.033C371.202 390.639 375.2 393.981 375.808 394.462C376.895 395.322 376.877 395.356 374.547 396.824C359.066 406.573 343.909 422.958 334.967 439.61C333.703 441.965 332.596 443.985 332.506 444.101C331.857 444.935 317.333 423.76 317.333 421.982C317.333 417.522 335.347 396.573 345.745 388.941C350.042 385.785 358.026 380.604 358.707 380.527C358.948 380.499 362.646 383.427 366.924 387.033ZM369.016 415.052C373.183 422.744 373.178 422.108 369.084 424.224C365.529 426.063 362.161 429.007 357.64 434.227L354.887 437.409L352.151 433.158C348.432 427.381 348.406 427.173 350.938 423.462C355.529 416.737 364.241 407.372 365.104 408.235C365.366 408.497 367.126 411.564 369.016 415.052ZM514.827 413.523C516.982 416.033 527.152 427.211 530.396 430.635C534.369 434.827 534.622 435.346 532.962 435.873C527.991 437.45 516.166 453.026 511.077 464.7C508.869 469.763 509.881 470.094 500.828 461.339L493.138 453.905L493.827 451.328C495.86 443.726 502.3 429.621 508.074 420.12C513.021 411.982 513.283 411.725 514.827 413.523ZM379.984 425.124C382.328 426.677 386.352 432.477 386.36 434.317C386.363 435.279 385.955 435.496 383.634 435.771C375.58 436.725 371.233 443.53 368.7 459.142C365.172 480.885 362.004 496.272 360.178 500.535C355.819 510.7 344.225 510.157 337.625 499.477C334.125 493.814 343.791 488.628 352.398 491.55C357.34 493.228 357.203 493.428 359.346 481.441C362.181 465.594 361.598 460.347 355.878 450.254C352.2 443.762 352.169 443.399 354.948 439.384C364.051 426.228 373.51 420.841 379.984 425.124ZM549.206 437.109C553.333 439.141 559.205 444.599 561.499 448.534C563.408 451.811 563.364 452.037 560.683 452.749C544.837 456.962 539.46 471.639 542.365 502.755C545.05 531.547 546.226 571.561 544.56 577.549C541.87 587.221 535.89 592.934 528.47 592.919C518.48 592.899 503.29 584.637 502.159 578.607C500.515 569.845 515.534 560.66 528.549 562.471C535.499 563.437 535.815 562.869 534.988 550.917C534.785 547.975 534.47 542.556 534.29 538.877C533.316 519.078 529.025 504.615 521.837 496.896C504.956 478.775 506.063 480.939 509.19 472.183C514.815 456.433 525.502 441.237 534.261 436.531C538.3 434.36 544.079 434.584 549.206 437.109ZM390.477 437.276L391.983 437.887L389.813 438.55C378.672 441.958 375.037 448.614 372.179 470.855C369.022 495.404 366.083 504.679 358.673 513.459L355.513 517.204L352.534 517.145C348.414 517.065 345.444 515.482 340.241 510.594C332.887 503.687 332.001 502.002 334.009 498.742L335.162 496.868L335.905 498.669C338.352 504.584 348.187 510.443 353.05 508.886C360.761 506.415 362.475 501.574 368.683 464.762C371.793 446.322 374.028 441.052 380.002 438.075C383.114 436.525 387.747 436.171 390.477 437.276ZM574.998 453.255C574.817 453.55 574.406 453.791 574.086 453.791C573.767 453.791 571.754 454.634 569.614 455.662C561.053 459.781 555.546 467.098 551.893 479.209C550.274 484.58 550.547 504.394 552.434 518.524C558.096 560.906 556.909 580.299 547.583 597.741C546.245 600.242 544.652 603.289 544.043 604.513C540.46 611.701 524.026 608.408 507.324 597.154C497.255 590.369 496.179 588.391 498.781 581.44C500.076 577.977 500.317 577.877 501.604 580.268C506.281 588.951 523.736 596.05 533.376 593.188C538.873 591.555 543.575 585.501 545.633 577.405C547.228 571.135 546.109 533.72 543.419 503.399C540.549 471.017 545.391 457.951 561.887 453.573C565.286 452.671 575.512 452.423 574.998 453.255ZM358.96 459.008C359.857 462.035 360.211 465.458 359.836 467.457L359.5 469.247L356.888 467.539C353.975 465.635 353.831 465.104 355.243 461.436C355.785 460.028 356.379 458.453 356.564 457.938C357.129 456.358 358.334 456.895 358.96 459.008ZM359.173 475.925C359.258 477.041 357.271 485.899 356.937 485.899C356.353 485.899 353.816 481.915 353.436 480.4C353.094 479.036 354.394 475.237 355.421 474.603C356.045 474.217 359.127 475.304 359.173 475.925ZM524.948 502.488C527.445 506.032 531.855 520.391 530.778 521.468C530.182 522.063 518.542 517.362 518.542 516.526C518.542 515.288 520.19 501.245 520.42 500.517C520.731 499.536 523.815 500.878 524.948 502.488ZM530.314 531.585L532.723 532.302L533.085 538.398C533.285 541.752 533.563 546.242 533.704 548.376C534.01 552.975 534.259 552.882 530.141 549.715C524.468 545.358 523.366 543.475 523.361 538.133C523.355 532.242 525.559 530.165 530.314 531.585Z" fill="#0D0D0E"/>
<path fill-rule="evenodd" clip-rule="evenodd" d="M164.161 53.9016C165.122 54.0195 166.568 54.0178 167.372 53.895C168.176 53.7739 167.389 53.6756 165.623 53.6789C163.856 53.6822 163.2 53.782 164.161 53.9016ZM172.724 53.9016C173.685 54.0195 175.129 54.0178 175.933 53.895C176.739 53.7739 175.951 53.6756 174.186 53.6789C172.419 53.6822 171.761 53.782 172.724 53.9016ZM158.533 54.4174C159.047 54.5517 159.89 54.5517 160.406 54.4174C160.92 54.2831 160.5 54.1718 159.47 54.1718C158.44 54.1718 158.017 54.2831 158.533 54.4174ZM167.646 54.9774C169.052 55.0871 171.22 55.0871 172.462 54.9741C173.704 54.8628 172.553 54.7711 169.904 54.7727C167.256 54.7744 166.239 54.8661 167.646 54.9774ZM201.789 61.7403C202.339 62.2315 205.49 63.6807 205.49 63.44C205.49 63.1322 202.523 61.5405 201.95 61.5405C201.738 61.5405 201.666 61.6306 201.789 61.7403ZM57.2241 63.5792C57.9397 64.1605 59.2644 65.0431 60.1667 65.5409L61.8074 66.4448L60.5056 65.387C59.7884 64.8057 58.4637 63.9231 57.5614 63.4253L55.9206 62.5214L57.2241 63.5792ZM124.791 69.0779C123.556 69.9868 122.546 70.8448 122.546 70.984C122.546 71.1248 123.628 70.46 124.953 69.5102C127.119 67.9546 127.687 67.4257 127.199 67.4257C127.109 67.4257 126.027 68.1691 124.791 69.0779ZM117.165 75.3201L115.321 77.326L117.327 75.4822C119.195 73.7661 119.58 73.3125 119.172 73.3125C119.082 73.3125 118.178 74.2164 117.165 75.3201ZM226.093 77.0591C228.137 79.1191 229.93 80.8041 230.077 80.8041C230.224 80.8041 228.672 79.1191 226.628 77.0591C224.583 74.9991 222.79 73.3125 222.643 73.3125C222.495 73.3125 224.048 74.9991 226.093 77.0591ZM113.155 77.1934L111.039 79.4662L113.313 77.3522C114.564 76.188 115.588 75.1645 115.588 75.0777C115.588 74.6716 115.123 75.0777 113.155 77.1934ZM84.0152 80.7271C85.4693 81.9487 85.1615 82.2041 83.3111 81.3101C82.1829 80.7648 82.1779 80.7746 83.1817 81.5786C84.4017 82.5546 85.8001 82.6806 85.5021 81.7866C85.3874 81.4443 84.7062 80.8123 83.9857 80.3832L82.6774 79.6038L84.0152 80.7271ZM110.471 82.0093L108.899 83.7483L110.638 82.1763C112.259 80.7107 112.624 80.2703 112.21 80.2703C112.118 80.2703 111.335 81.053 110.471 82.0093ZM448.312 85.9999C448.978 86.1276 449.941 86.1227 450.453 85.9884C450.964 85.8541 450.419 85.7493 449.242 85.7559C448.064 85.7624 447.647 85.8721 448.312 85.9999ZM460.621 85.9999C461.285 86.1276 462.248 86.1227 462.761 85.9884C463.272 85.8541 462.728 85.7493 461.551 85.7559C460.373 85.7624 459.954 85.8721 460.621 85.9999ZM452.318 87.0872C454.012 87.1936 456.781 87.1936 458.474 87.0872C460.165 86.9807 458.782 86.8939 455.397 86.8939C452.012 86.8939 450.627 86.9807 452.318 87.0872ZM99.2669 95.7888C98.81 96.6715 98.5562 97.3936 98.7036 97.3936C98.851 97.3936 99.3455 96.6715 99.8024 95.7888C100.259 94.9062 100.511 94.1824 100.364 94.1824C100.217 94.1824 99.7238 94.9062 99.2669 95.7888ZM79.1518 96.7124C80.1786 96.9056 80.2883 97.0645 79.6873 97.4837C79.0405 97.934 79.0438 97.9798 79.7004 97.803C81.1873 97.4001 80.94 96.321 79.3778 96.3964C77.9892 96.4635 77.9696 96.4897 79.1518 96.7124ZM75.0515 97.2282C75.5674 97.3625 76.4107 97.3625 76.9248 97.2282C77.4407 97.0923 77.0182 96.9826 75.9882 96.9826C74.9582 96.9826 74.5374 97.0923 75.0515 97.2282ZM494.997 99.2669C495.994 100.297 496.932 101.14 497.08 101.14C497.225 101.14 496.529 100.297 495.53 99.2669C494.533 98.2369 493.595 97.3936 493.448 97.3936C493.302 97.3936 493.998 98.2369 494.997 99.2669ZM412.837 101.273L409.642 104.618L412.987 101.423C414.826 99.6681 416.331 98.1616 416.331 98.0797C416.331 97.6834 415.804 98.1665 412.837 101.273ZM98.1714 100.654C97.6998 101.564 97.41 102.404 97.5262 102.521C97.6425 102.637 98.137 101.892 98.6266 100.865C99.727 98.5578 99.3455 98.381 98.1714 100.654ZM496.334 102.209C497.784 103.682 499.09 104.885 499.236 104.885C499.383 104.885 498.319 103.682 496.868 102.209C495.419 100.739 494.112 99.5338 493.967 99.5338C493.819 99.5338 494.884 100.739 496.334 102.209ZM413.628 102.077L411.784 104.083L413.79 102.239C415.658 100.523 416.043 100.069 415.634 100.069C415.545 100.069 414.641 100.973 413.628 102.077ZM441.082 109.033C447.778 109.118 458.734 109.118 465.43 109.033C472.126 108.948 466.647 108.877 453.255 108.877C439.864 108.877 434.386 108.948 441.082 109.033ZM432.496 110.097C434.47 110.2 437.841 110.202 439.988 110.099C442.135 109.997 440.52 109.914 436.399 109.912C432.279 109.912 430.522 109.996 432.496 110.097ZM455.798 110.094C457.049 110.207 459.096 110.207 460.345 110.094C461.597 109.981 460.573 109.889 458.073 109.889C455.571 109.889 454.547 109.981 455.798 110.094ZM471.852 110.079C472.514 110.207 473.598 110.207 474.259 110.079C474.922 109.952 474.381 109.847 473.056 109.847C471.731 109.847 471.189 109.952 471.852 110.079ZM404.204 123.615C404.204 125.822 404.299 126.726 404.413 125.622C404.53 124.519 404.53 122.713 404.413 121.609C404.299 120.505 404.204 121.408 404.204 123.615ZM452.988 121.339C468.061 121.432 476.801 121.678 476.801 122.01C476.801 122.341 468.574 122.587 454.46 122.678L432.118 122.824L454.766 122.952C476.087 123.073 477.405 123.025 477.235 122.144C477.066 121.268 475.486 121.206 453.114 121.2L429.174 121.19L452.988 121.339ZM507.456 123.348C507.461 124.818 507.564 125.357 507.687 124.545C507.812 123.731 507.808 122.528 507.681 121.869C507.553 121.211 507.453 121.876 507.456 123.348ZM89.491 125.755C89.491 126.785 89.6007 127.208 89.735 126.692C89.8709 126.178 89.8709 125.334 89.735 124.818C89.6007 124.304 89.491 124.725 89.491 125.755ZM90.5619 127.897C90.5619 128.927 90.6716 129.348 90.8059 128.832C90.9402 128.318 90.9402 127.474 90.8059 126.96C90.6716 126.444 90.5619 126.865 90.5619 127.897ZM249.506 129.769C249.512 130.946 249.622 131.365 249.75 130.699C249.878 130.034 249.873 129.071 249.738 128.559C249.604 128.048 249.499 128.591 249.506 129.769ZM88.9768 130.573C88.9768 131.896 89.0816 132.438 89.2094 131.776C89.3371 131.113 89.3371 130.031 89.2094 129.367C89.0816 128.706 88.9768 129.248 88.9768 130.573ZM191.443 128.819C192.4 128.937 193.965 128.937 194.921 128.819C195.878 128.699 195.095 128.603 193.182 128.603C191.27 128.603 190.487 128.699 191.443 128.819ZM192.246 129.87C192.762 130.004 193.603 130.004 194.119 129.87C194.633 129.736 194.212 129.626 193.182 129.626C192.152 129.626 191.73 129.736 192.246 129.87ZM90.1051 136.993C90.1051 140.378 90.1919 141.763 90.2967 140.07C90.4031 138.379 90.4031 135.61 90.2967 133.916C90.1919 132.225 90.1051 133.609 90.1051 136.993ZM251.181 137.796C251.181 141.328 251.268 142.703 251.373 140.853C251.477 139.001 251.477 136.111 251.371 134.431C251.265 132.75 251.179 134.264 251.181 137.796ZM322.918 133.381L321.346 135.12L323.085 133.55C324.042 132.685 324.824 131.902 324.824 131.809C324.824 131.396 324.382 131.76 322.918 133.381ZM154.519 133.099C155.476 133.219 157.041 133.219 157.997 133.099C158.954 132.981 158.171 132.883 156.258 132.883C154.346 132.883 153.563 132.981 154.519 133.099ZM310.075 134.452L308.503 136.191L310.242 134.619C311.199 133.754 311.981 132.972 311.981 132.88C311.981 132.467 311.539 132.831 310.075 134.452ZM177.268 136.677C175.278 138.564 173.77 140.19 173.917 140.29C174.065 140.389 175.823 138.847 177.826 136.859C182.45 132.272 182.051 132.141 177.268 136.677ZM429.413 133.83C428.576 135.184 430.52 135.403 442.055 135.254L454.059 135.099L441.884 134.976C430.941 134.866 426.318 134.272 431.449 133.635L433.188 133.419L431.481 133.333C430.541 133.286 429.611 133.509 429.413 133.83ZM437.604 133.64C438.853 133.753 440.9 133.753 442.151 133.64C443.402 133.527 442.379 133.435 439.877 133.435C437.376 133.435 436.353 133.527 437.604 133.64ZM204.954 133.951C204.954 134.042 205.737 134.825 206.693 135.69L208.434 137.262L206.862 135.521C205.397 133.9 204.954 133.536 204.954 133.951ZM250.077 138.064C250.077 139.977 250.174 140.76 250.294 139.803C250.411 138.847 250.411 137.281 250.294 136.325C250.174 135.367 250.077 136.15 250.077 138.064ZM170.644 139.228C171.395 140.091 171.73 140.941 171.487 141.369C171.161 141.942 171.224 141.948 171.813 141.401C172.419 140.838 172.278 140.481 170.97 139.261L169.399 137.796L170.644 139.228ZM88.9916 142.88C88.9916 144.498 89.0931 145.161 89.2143 144.352C89.3371 143.542 89.3371 142.217 89.2143 141.408C89.0931 140.599 88.9916 141.261 88.9916 142.88ZM171.615 143.817C171.122 144.92 171.017 145.363 171.381 144.799C171.746 144.238 172.466 143.334 172.981 142.793C173.642 142.099 173.711 141.809 173.213 141.809C172.827 141.809 172.108 142.713 171.615 143.817ZM496.051 145.421L492.588 149.034L496.2 145.57C498.186 143.666 499.812 142.042 499.812 141.958C499.812 141.565 499.267 142.066 496.051 145.421ZM90.5619 146.625C90.5619 147.657 90.6716 148.077 90.8059 147.562C90.9402 147.048 90.9402 146.204 90.8059 145.69C90.6716 145.174 90.5619 145.595 90.5619 146.625ZM357.869 145.399C358.531 145.526 359.615 145.526 360.276 145.399C360.939 145.271 360.397 145.166 359.073 145.166C357.748 145.166 357.206 145.271 357.869 145.399ZM89.491 148.231C89.491 149.261 89.6007 149.682 89.735 149.168C89.8709 148.652 89.8709 147.811 89.735 147.295C89.6007 146.779 89.491 147.201 89.491 148.231ZM485.764 152.818C483.765 153.904 483.886 154.356 485.899 153.314C486.781 152.859 487.503 152.371 487.503 152.23C487.503 151.886 487.446 151.906 485.764 152.818ZM214.763 155.99C214.765 158.052 214.863 158.828 214.978 157.717C215.094 156.607 215.092 154.922 214.974 153.972C214.855 153.023 214.761 153.93 214.763 155.99ZM132.353 157.061C132.356 159.121 132.452 159.899 132.567 158.788C132.683 157.678 132.682 155.992 132.564 155.042C132.446 154.092 132.351 155.001 132.353 157.061ZM180.51 157.328C180.51 159.242 180.608 160.025 180.726 159.068C180.845 158.11 180.845 156.545 180.726 155.589C180.608 154.632 180.51 155.415 180.51 157.328ZM166.571 160.539C166.571 161.864 166.676 162.406 166.804 161.744C166.932 161.081 166.932 159.997 166.804 159.335C166.676 158.674 166.571 159.214 166.571 160.539ZM447.771 160.382C448.433 160.509 449.517 160.509 450.178 160.382C450.841 160.254 450.299 160.149 448.975 160.149C447.65 160.149 447.108 160.254 447.771 160.382ZM460.614 160.382C461.276 160.509 462.36 160.509 463.021 160.382C463.684 160.254 463.142 160.149 461.818 160.149C460.493 160.149 459.951 160.254 460.614 160.382ZM303.609 165.088C303.607 167.737 303.697 168.888 303.81 167.646C303.922 166.404 303.923 164.236 303.814 162.83C303.702 161.423 303.611 162.438 303.609 165.088ZM453.109 161.996C454.061 162.114 455.746 162.116 456.856 162C457.966 161.885 457.188 161.787 455.128 161.785C453.068 161.783 452.16 161.877 453.109 161.996ZM165.907 164.678C165.898 165.042 166.553 166.016 167.362 166.845C168.171 167.672 168.445 167.857 167.97 167.254C167.495 166.652 166.84 165.676 166.516 165.088C166.19 164.5 165.916 164.315 165.907 164.678ZM344.784 167.497C344.784 169.114 344.885 169.778 345.008 168.967C345.129 168.158 345.129 166.833 345.008 166.024C344.885 165.216 344.784 165.877 344.784 167.497ZM176.827 167.094L175.255 168.834L176.994 167.262C178.615 165.797 178.98 165.355 178.566 165.355C178.474 165.355 177.692 166.137 176.827 167.094ZM309.974 166.794C310.49 166.928 311.333 166.928 311.847 166.794C312.363 166.66 311.94 166.55 310.91 166.55C309.88 166.55 309.46 166.66 309.974 166.794ZM172.579 167.497L170.439 167.88L172.414 167.955C173.501 167.998 174.538 167.79 174.72 167.497C174.901 167.202 174.977 166.996 174.885 167.036C174.795 167.079 173.757 167.285 172.579 167.497ZM350.911 170.706C351.918 171.834 351.805 175.723 350.779 175.329C350.337 175.16 349.975 175.227 349.975 175.478C349.975 175.728 350.517 176.038 351.18 176.164C352.704 176.457 352.662 171.775 351.129 170.623C350.382 170.061 350.348 170.074 350.911 170.706ZM141.252 174.587C142.564 175.984 143.709 177.128 143.794 177.128C144.197 177.128 143.771 176.649 141.408 174.43L138.867 172.044L141.252 174.587ZM96.8581 173.582C96.8581 174.16 98.9836 178.199 99.2882 178.199C99.4356 178.199 99.0393 177.176 98.4088 175.925C97.1693 173.464 96.8581 172.995 96.8581 173.582ZM307.911 176.816C307.752 177.232 307.708 178.255 307.812 179.09C307.97 180.328 308.053 180.189 308.268 178.332C308.539 175.992 308.42 175.489 307.911 176.816ZM208.166 181.944C207.565 183.122 207.195 184.084 207.342 184.084C207.489 184.084 208.1 183.122 208.701 181.944C209.302 180.767 209.672 179.804 209.525 179.804C209.379 179.804 208.767 180.767 208.166 181.944ZM310.984 183.618C310.943 184.394 311.331 185.354 311.847 185.758C312.663 186.398 312.704 186.388 312.166 185.691C311.826 185.249 311.438 184.286 311.302 183.551L311.056 182.213L310.984 183.618ZM311.981 183.947C311.981 184.245 312.34 184.787 312.777 185.15C313.216 185.514 313.442 186.025 313.282 186.287C313.119 186.547 313.244 186.76 313.555 186.76C314.375 186.76 314.259 186.302 313.051 184.766C312.463 184.017 311.981 183.649 311.981 183.947ZM246.963 186.76C248.112 187.938 249.173 188.9 249.321 188.9C249.468 188.9 248.648 187.938 247.498 186.76C246.349 185.583 245.288 184.62 245.14 184.62C244.993 184.62 245.813 185.583 246.963 186.76ZM233.44 188.367C233.44 189.397 233.552 189.817 233.686 189.303C233.82 188.787 233.82 187.944 233.686 187.43C233.552 186.914 233.44 187.337 233.44 188.367ZM320.616 189.798C320.677 191.06 320.727 191.111 320.921 190.106C321.164 188.843 321.869 188.516 322.332 189.449C322.481 189.752 322.542 189.691 322.466 189.316C322.162 187.816 320.541 188.239 320.616 189.798ZM163.75 192.914C165.646 194.828 167.318 196.394 167.465 196.394C167.613 196.394 166.182 194.828 164.285 192.914C162.389 191.001 160.717 189.436 160.57 189.436C160.423 189.436 161.854 191.001 163.75 192.914ZM111.039 194.787C112.188 195.965 113.25 196.927 113.397 196.927C113.544 196.927 112.724 195.965 111.574 194.787C110.425 193.61 109.364 192.647 109.216 192.647C109.071 192.647 109.889 193.61 111.039 194.787ZM316.262 193.685C316.262 193.962 316.54 194.361 316.881 194.571C317.248 194.799 317.352 194.718 317.14 194.373C316.933 194.039 317.295 193.695 317.993 193.561C319.042 193.359 319.008 193.318 317.734 193.254C316.925 193.215 316.262 193.408 316.262 193.685ZM114.785 196.927C116.533 198.694 118.083 200.139 118.231 200.139C118.378 200.139 117.068 198.694 115.321 196.927C113.574 195.162 112.023 193.718 111.876 193.718C111.728 193.718 113.038 195.162 114.785 196.927ZM227.673 195.992L225.557 198.265L227.832 196.151C229.948 194.183 230.352 193.718 229.948 193.718C229.859 193.718 228.836 194.741 227.673 195.992ZM222.314 199.202L220.742 200.941L222.481 199.371C224.102 197.905 224.465 197.463 224.053 197.463C223.961 197.463 223.178 198.246 222.314 199.202ZM116.39 200.139C117.54 201.316 118.601 202.279 118.748 202.279C118.896 202.279 118.075 201.316 116.926 200.139C115.776 198.961 114.715 197.998 114.568 197.998C114.422 197.998 115.241 198.961 116.39 200.139ZM352.884 199.737L351.313 201.476L353.053 199.904C354.009 199.04 354.792 198.259 354.792 198.165C354.792 197.753 354.35 198.116 352.884 199.737ZM347.988 200.941C347.992 202.413 348.096 202.952 348.219 202.138C348.342 201.324 348.339 200.121 348.211 199.462C348.085 198.804 347.983 199.47 347.988 200.941ZM196.66 202.279C196.204 203.163 195.951 203.885 196.097 203.885C196.245 203.885 196.739 203.163 197.196 202.279C197.653 201.396 197.905 200.674 197.758 200.674C197.612 200.674 197.117 201.396 196.66 202.279ZM243.216 207.63C244.667 209.102 245.972 210.306 246.12 210.306C246.267 210.306 245.201 209.102 243.752 207.63C242.303 206.16 240.996 204.954 240.848 204.954C240.703 204.954 241.767 206.16 243.216 207.63ZM127.093 206.838C127.682 207.317 128.645 207.946 129.235 208.234L130.304 208.76L129.235 207.889C128.645 207.409 127.682 206.78 127.093 206.492L126.024 205.966L127.093 206.838ZM260.854 207.537C261.096 207.964 260.762 208.812 260.01 209.677L258.766 211.11L260.336 209.644C261.646 208.424 261.785 208.067 261.18 207.504C260.59 206.957 260.528 206.964 260.854 207.537ZM131.642 209.476C131.642 209.623 132.364 210.117 133.248 210.574C134.131 211.031 134.853 211.283 134.853 211.136C134.853 210.989 134.131 210.496 133.248 210.039C132.364 209.582 131.642 209.33 131.642 209.476ZM136.458 212.179C137.195 212.6 138.036 212.944 138.331 212.944C138.626 212.944 138.264 212.6 137.529 212.179C136.793 211.758 135.95 211.414 135.655 211.414C135.361 211.414 135.723 211.758 136.458 212.179ZM331.387 212.831C332.201 212.954 333.405 212.95 334.063 212.824C334.721 212.697 334.055 212.597 332.584 212.6C331.112 212.603 330.574 212.708 331.387 212.831ZM356.269 213.895C356.936 214.023 357.899 214.018 358.409 213.885C358.922 213.751 358.377 213.646 357.199 213.653C356.022 213.658 355.604 213.767 356.269 213.895ZM365.906 213.905C366.867 214.025 368.311 214.021 369.115 213.9C369.919 213.777 369.133 213.681 367.367 213.682C365.601 213.686 364.943 213.785 365.906 213.905ZM359.474 214.982C361.02 215.091 363.548 215.091 365.094 214.982C366.638 214.874 365.374 214.786 362.284 214.786C359.194 214.786 357.93 214.874 359.474 214.982ZM379.279 214.966C379.946 215.094 380.909 215.089 381.421 214.955C381.932 214.82 381.387 214.717 380.211 214.722C379.034 214.729 378.615 214.838 379.279 214.966ZM371.514 215.492C372.03 215.626 372.872 215.626 373.388 215.492C373.902 215.357 373.481 215.246 372.451 215.246C371.421 215.246 371 215.357 371.514 215.492ZM385.702 215.502C386.368 215.629 387.331 215.624 387.842 215.49C388.354 215.356 387.809 215.251 386.632 215.258C385.454 215.264 385.037 215.374 385.702 215.502ZM376.866 216.027C377.382 216.161 378.223 216.161 378.739 216.027C379.253 215.891 378.832 215.782 377.802 215.782C376.772 215.782 376.352 215.891 376.866 216.027ZM392.124 216.035C392.789 216.165 393.752 216.16 394.264 216.026C394.775 215.891 394.231 215.786 393.054 215.793C391.877 215.798 391.457 215.908 392.124 216.035ZM148.633 217.173C149.73 218.323 149.993 218.292 149.525 217.072C149.338 216.589 148.852 216.193 148.441 216.193C147.874 216.193 147.919 216.427 148.633 217.173ZM383.555 216.571C384.216 216.699 385.3 216.699 385.964 216.571C386.625 216.443 386.083 216.338 384.758 216.338C383.434 216.338 382.893 216.443 383.555 216.571ZM390.244 217.096C390.76 217.231 391.602 217.231 392.117 217.096C392.632 216.962 392.211 216.852 391.181 216.852C390.151 216.852 389.728 216.962 390.244 217.096ZM402.82 217.106C403.482 217.232 404.566 217.232 405.227 217.106C405.89 216.979 405.348 216.874 404.024 216.874C402.699 216.874 402.157 216.979 402.82 217.106ZM395.595 217.632C396.111 217.766 396.953 217.766 397.469 217.632C397.983 217.498 397.562 217.388 396.532 217.388C395.502 217.388 395.08 217.498 395.595 217.632ZM400.411 218.167C400.927 218.302 401.769 218.302 402.285 218.167C402.799 218.033 402.378 217.922 401.348 217.922C400.318 217.922 399.897 218.033 400.411 218.167ZM406.572 218.711C407.238 218.84 408.201 218.836 408.712 218.701C409.224 218.567 408.679 218.462 407.502 218.469C406.324 218.474 405.907 218.583 406.572 218.711ZM340.05 221.143L337.936 223.417L340.209 221.302C342.324 219.335 342.729 218.868 342.324 218.868C342.237 218.868 341.214 219.892 340.05 221.143ZM188.021 227.698C188.019 230.347 188.109 231.498 188.222 230.255C188.334 229.014 188.335 226.846 188.224 225.44C188.114 224.033 188.023 225.05 188.021 227.698ZM438.272 224.46C438.272 224.608 438.994 225.101 439.877 225.557C440.761 226.014 441.483 226.268 441.483 226.121C441.483 225.973 440.761 225.479 439.877 225.022C438.994 224.565 438.272 224.313 438.272 224.46ZM442.019 224.996C442.019 225.142 442.741 225.636 443.623 226.093C444.506 226.55 445.228 226.802 445.228 226.655C445.228 226.509 444.506 226.014 443.623 225.557C442.741 225.101 442.019 224.848 442.019 224.996ZM195.177 225.677C196.127 225.795 197.813 225.797 198.924 225.68C200.034 225.564 199.256 225.467 197.196 225.466C195.136 225.462 194.227 225.557 195.177 225.677ZM189.025 227.966C189.025 228.996 189.136 229.417 189.27 228.903C189.405 228.387 189.405 227.544 189.27 227.03C189.136 226.514 189.025 226.936 189.025 227.966ZM210.078 229.086C210.939 230.144 211.752 230.919 211.884 230.809C212.017 230.698 211.311 229.831 210.317 228.885L208.511 227.162L210.078 229.086ZM250.577 229.304C250.582 230.481 250.691 230.899 250.819 230.234C250.947 229.568 250.944 228.605 250.809 228.094C250.675 227.581 250.57 228.127 250.577 229.304ZM334.877 230.106C335.008 230.989 335.206 231.711 335.321 231.711C335.434 231.711 335.527 230.989 335.527 230.106C335.527 229.224 335.327 228.5 335.085 228.5C334.841 228.5 334.748 229.224 334.877 230.106ZM448.975 228.741C448.975 228.888 449.697 229.383 450.579 229.838C451.464 230.295 452.186 230.549 452.186 230.401C452.186 230.254 451.464 229.761 450.579 229.304C449.697 228.847 448.975 228.593 448.975 228.741ZM179.897 232.648C179.819 235.006 179.955 235.456 180.741 235.45C181.363 235.445 181.466 235.307 181.045 235.039C180.696 234.818 180.318 233.558 180.202 232.238L179.991 229.838L179.897 232.648ZM351.226 233.851C351.226 236.059 351.321 236.963 351.435 235.859C351.552 234.755 351.552 232.949 351.435 231.845C351.321 230.742 351.226 231.644 351.226 233.851ZM250.441 234.616C250.441 235.911 250.167 236.521 249.504 236.694C248.8 236.878 248.866 236.954 249.773 237C250.831 237.056 250.976 236.804 250.976 234.922C250.976 233.745 250.855 232.782 250.709 232.782C250.562 232.782 250.441 233.607 250.441 234.616ZM215.657 235.725C214.359 237.049 213.415 238.133 213.561 238.133C213.708 238.133 214.892 237.049 216.193 235.725C217.493 234.4 218.436 233.318 218.289 233.318C218.141 233.318 216.957 234.4 215.657 235.725ZM274.584 240.911C274.55 242.291 274.712 243.539 274.946 243.683C275.179 243.827 275.285 243.059 275.182 241.975C274.869 238.666 274.65 238.276 274.584 240.911ZM358.002 242.841C358.002 243.26 361.28 244.667 361.573 244.374C361.662 244.284 360.895 243.811 359.868 243.321C358.842 242.831 358.002 242.615 358.002 242.841ZM474.66 243.19C474.66 243.336 475.383 243.83 476.267 244.287C477.149 244.744 477.872 244.996 477.872 244.85C477.872 244.703 477.149 244.209 476.267 243.752C475.383 243.295 474.66 243.043 474.66 243.19ZM179.419 244.413C180.826 244.525 182.992 244.523 184.235 244.41C185.476 244.299 184.325 244.209 181.677 244.21C179.028 244.212 178.013 244.304 179.419 244.413ZM350.635 245.625C350.635 246.655 350.744 247.076 350.88 246.562C351.014 246.046 351.014 245.204 350.88 244.688C350.744 244.174 350.635 244.595 350.635 245.625ZM176.192 245.458C176.708 245.594 177.549 245.594 178.065 245.458C178.579 245.324 178.158 245.214 177.128 245.214C176.098 245.214 175.676 245.324 176.192 245.458ZM184.754 245.458C185.268 245.594 186.112 245.594 186.628 245.458C187.142 245.324 186.721 245.214 185.691 245.214C184.661 245.214 184.238 245.324 184.754 245.458ZM480.547 246.4C480.547 246.547 481.269 247.041 482.152 247.498C483.036 247.955 483.758 248.207 483.758 248.06C483.758 247.914 483.036 247.42 482.152 246.963C481.269 246.506 480.547 246.254 480.547 246.4ZM366.698 247.6C367.213 247.734 368.056 247.734 368.572 247.6C369.086 247.464 368.665 247.354 367.635 247.354C366.605 247.354 366.183 247.464 366.698 247.6ZM350.142 252.85C350.145 254.615 350.245 255.273 350.363 254.312C350.482 253.349 350.481 251.905 350.358 251.101C350.235 250.297 350.138 251.083 350.142 252.85ZM400.813 252.462C400.813 252.691 402.558 254.558 404.693 256.609L408.573 260.341L404.887 256.508C401.446 252.93 401.287 252.66 402.479 252.434C403.665 252.209 403.65 252.186 402.285 252.119C401.476 252.08 400.813 252.234 400.813 252.462ZM430.289 255.997C430.834 256.498 438.272 260.06 438.272 259.819C438.272 259.521 431.018 255.792 430.437 255.792C430.233 255.792 430.166 255.884 430.289 255.997ZM409.352 263.418C410.665 264.817 411.808 265.96 411.895 265.96C412.296 265.96 411.872 265.48 409.509 263.263L406.966 260.877L409.352 263.418ZM415.529 268.1C417.276 269.867 418.827 271.311 418.974 271.311C419.121 271.311 417.811 269.867 416.064 268.1C414.317 266.335 412.766 264.89 412.619 264.89C412.472 264.89 413.782 266.335 415.529 268.1ZM445.228 265.129C445.228 265.277 445.952 265.771 446.834 266.228C447.717 266.685 448.439 266.937 448.439 266.79C448.439 266.642 447.717 266.149 446.834 265.693C445.952 265.236 445.228 264.982 445.228 265.129ZM420.068 274.656C423.153 277.82 425.742 280.409 425.82 280.409C426.207 280.409 425.555 279.723 420.212 274.512L414.459 268.904L420.068 274.656ZM457.537 270.487C457.537 270.635 458.5 271.245 459.677 271.846C460.855 272.447 461.818 272.817 461.818 272.672C461.818 272.524 460.855 271.912 459.677 271.311C458.5 270.71 457.537 270.34 457.537 270.487ZM420.554 273.327C421.183 274.479 424.815 278.012 425.049 277.697C425.142 277.569 424.057 276.325 422.634 274.931C421.212 273.539 420.277 272.816 420.554 273.327ZM467.704 275.839C467.704 275.986 468.667 276.597 469.845 277.198C471.022 277.799 471.985 278.169 471.985 278.023C471.985 277.876 471.022 277.263 469.845 276.662C468.667 276.061 467.704 275.691 467.704 275.839ZM478.443 278.498C477.772 279.212 477.349 280.116 477.505 280.504C477.724 281.052 477.796 281.039 477.829 280.443C477.852 280.021 478.396 279.117 479.036 278.436C479.674 277.754 480.079 277.198 479.932 277.198C479.784 277.198 479.114 277.782 478.443 278.498ZM426.122 278.621C426.58 279.369 431.85 283.826 431.85 283.466C431.85 283.328 430.476 282.041 428.796 280.607C427.116 279.174 425.912 278.28 426.122 278.621ZM185.29 279.172C185.804 279.307 186.647 279.307 187.161 279.172C187.677 279.038 187.256 278.927 186.225 278.927C185.195 278.927 184.774 279.038 185.29 279.172ZM195.457 279.172C195.971 279.307 196.814 279.307 197.33 279.172C197.844 279.038 197.424 278.927 196.394 278.927C195.364 278.927 194.941 279.038 195.457 279.172ZM484.002 281.516C483.808 281.832 483.131 282.297 482.499 282.552C481.715 282.868 481.621 283.027 482.203 283.05C482.673 283.068 483.493 282.603 484.025 282.014C484.559 281.426 484.851 280.944 484.675 280.944C484.5 280.944 484.197 281.201 484.002 281.516ZM359.608 287.07C359.608 287.218 360.33 287.712 361.213 288.167C362.095 288.624 362.819 288.878 362.819 288.731C362.819 288.583 362.095 288.089 361.213 287.633C360.33 287.177 359.608 286.923 359.608 287.07ZM386.9 287.072C386.9 287.782 388.21 290.041 388.623 290.041C388.887 290.041 388.929 290.342 388.718 290.71C388.507 291.077 388.53 291.2 388.772 290.982C389.013 290.764 389.56 290.876 389.987 291.231C390.414 291.585 389.998 290.74 389.062 289.353C387.511 287.055 386.9 286.41 386.9 287.072ZM196.266 288.814C196.931 288.942 197.894 288.937 198.406 288.803C198.917 288.67 198.373 288.565 197.196 288.57C196.019 288.577 195.599 288.686 196.266 288.814ZM369.988 296.463C369.988 300.73 370.072 302.476 370.173 300.342C370.275 298.208 370.275 294.717 370.173 292.582C370.072 290.448 369.988 292.196 369.988 296.463ZM554.52 291.647C554.52 292.677 554.629 293.098 554.764 292.582C554.9 292.068 554.9 291.225 554.764 290.71C554.629 290.195 554.52 290.615 554.52 291.647ZM344.072 293.653L341.145 296.73L344.222 293.805C347.081 291.087 347.545 290.576 347.148 290.576C347.065 290.576 345.68 291.961 344.072 293.653ZM365.361 290.954C366.022 291.082 367.106 291.082 367.769 290.954C368.431 290.827 367.889 290.722 366.564 290.722C365.239 290.722 364.699 290.827 365.361 290.954ZM501.417 294.49C501.417 294.581 502.2 295.364 503.156 296.229L504.895 297.801L503.323 296.062C501.859 294.441 501.417 294.075 501.417 294.49ZM207.784 299.405C207.787 300.878 207.892 301.416 208.015 300.602C208.138 299.789 208.134 298.585 208.007 297.927C207.881 297.269 207.779 297.933 207.784 299.405ZM358.002 299.106C358.002 299.972 358.193 300.797 358.426 300.941C358.658 301.086 358.753 300.378 358.635 299.368C358.372 297.12 358.002 296.966 358.002 299.106ZM473.463 300.586C474.128 300.715 475.093 300.711 475.604 300.576C476.115 300.442 475.571 300.337 474.394 300.344C473.216 300.349 472.797 300.458 473.463 300.586ZM482.286 301.112C482.802 301.248 483.644 301.248 484.16 301.112C484.674 300.977 484.253 300.868 483.223 300.868C482.193 300.868 481.772 300.977 482.286 301.112ZM476.935 302.197C477.744 302.32 479.069 302.32 479.879 302.197C480.688 302.075 480.025 301.975 478.407 301.975C476.788 301.975 476.126 302.075 476.935 302.197ZM485.005 305.828C485.006 307.888 485.103 308.666 485.219 307.555C485.335 306.443 485.332 304.758 485.214 303.809C485.096 302.859 485.001 303.768 485.005 305.828ZM403.221 307.699C404.67 309.172 405.977 310.375 406.125 310.375C406.272 310.375 405.206 309.172 403.757 307.699C402.306 306.229 401.001 305.025 400.853 305.025C400.706 305.025 401.772 306.229 403.221 307.699ZM547.975 308.77C546.871 309.124 546.825 309.208 547.706 309.244C548.296 309.268 549.137 309.055 549.579 308.77C550.518 308.164 549.866 308.164 547.975 308.77ZM408.573 313.051C409.722 314.228 410.783 315.193 410.931 315.193C411.078 315.193 410.258 314.228 409.108 313.051C407.959 311.875 406.897 310.911 406.75 310.911C406.603 310.911 407.423 311.875 408.573 313.051ZM355.847 318.269L352.383 321.882L355.996 318.418C357.982 316.514 359.608 314.888 359.608 314.806C359.608 314.411 359.063 314.914 355.847 318.269ZM358.784 317.467L356.13 320.275L358.938 317.621C361.55 315.153 361.994 314.657 361.594 314.657C361.509 314.657 360.245 315.921 358.784 317.467ZM201.745 318.402C201.116 319.286 200.721 320.008 200.869 320.008C201.016 320.008 201.65 319.286 202.279 318.402C202.908 317.519 203.302 316.797 203.155 316.797C203.007 316.797 202.374 317.519 201.745 318.402ZM554.931 316.964C554.931 317.058 555.713 317.839 556.67 318.703L558.409 320.275L556.837 318.536C555.373 316.915 554.931 316.552 554.931 316.964ZM478.641 320.677L477.069 322.416L478.808 320.845C479.765 319.981 480.547 319.198 480.547 319.105C480.547 318.692 480.105 319.055 478.641 320.677ZM528.2 321.851C527.848 322.275 526.795 322.719 525.86 322.835L524.16 323.048L525.816 323.133C526.875 323.188 527.822 322.833 528.441 322.149C528.975 321.561 529.283 321.078 529.125 321.078C528.968 321.078 528.552 321.427 528.2 321.851ZM348.876 324.69L347.032 326.698L349.04 324.854C350.906 323.136 351.291 322.684 350.883 322.684C350.793 322.684 349.891 323.586 348.876 324.69ZM351.28 324.423L349.708 326.162L351.447 324.59C352.403 323.726 353.186 322.943 353.186 322.851C353.186 322.439 352.745 322.802 351.28 324.423ZM196.626 324.959L195.056 326.698L196.795 325.126C198.416 323.66 198.779 323.22 198.367 323.22C198.273 323.22 197.491 324.002 196.626 324.959ZM454.994 325.217C456.393 325.329 458.68 325.329 460.079 325.217C461.477 325.108 460.332 325.018 457.537 325.018C454.74 325.018 453.597 325.108 454.994 325.217ZM191.013 329.506L189.169 331.514L191.175 329.67C193.043 327.954 193.428 327.5 193.02 327.5C192.93 327.5 192.026 328.402 191.013 329.506ZM192.617 329.506L190.774 331.514L192.781 329.67C194.648 327.954 195.034 327.5 194.625 327.5C194.535 327.5 193.633 328.402 192.617 329.506ZM445.497 328.035C444.822 328.325 444.722 328.496 445.228 328.496C445.67 328.496 446.513 328.288 447.101 328.035C447.776 327.746 447.876 327.575 447.37 327.575C446.928 327.575 446.084 327.782 445.497 328.035ZM375.929 332.316C377.676 334.083 379.227 335.527 379.374 335.527C379.522 335.527 378.212 334.083 376.464 332.316C374.717 330.551 373.167 329.105 373.019 329.105C372.872 329.105 374.182 330.551 375.929 332.316ZM552.127 330.018C552.794 330.146 553.757 330.143 554.268 330.009C554.78 329.874 554.235 329.77 553.057 329.776C551.88 329.781 551.463 329.891 552.127 330.018ZM382.374 337.705C382.721 338.268 386.9 340.508 386.9 340.132C386.9 340.004 385.81 339.29 384.478 338.547C383.147 337.803 382.201 337.423 382.374 337.705ZM306.329 340.477L304.757 342.216L306.496 340.644C307.452 339.78 308.235 338.997 308.235 338.905C308.235 338.493 307.794 338.856 306.329 340.477ZM403.077 341.949C403.077 342.979 403.189 343.4 403.323 342.884C403.457 342.37 403.457 341.527 403.323 341.013C403.189 340.497 403.077 340.918 403.077 341.949ZM438.272 341.681C439.007 342.102 439.851 342.445 440.145 342.445C440.44 342.445 440.078 342.102 439.343 341.681C438.606 341.26 437.764 340.916 437.47 340.916C437.175 340.916 437.537 341.26 438.272 341.681ZM450.579 347.032C451.316 347.453 452.158 347.797 452.453 347.797C452.747 347.797 452.386 347.453 451.65 347.032C450.915 346.611 450.072 346.267 449.777 346.267C449.482 346.267 449.844 346.611 450.579 347.032ZM458.606 350.779C459.343 351.2 460.185 351.543 460.48 351.543C460.775 351.543 460.413 351.2 459.677 350.779C458.942 350.358 458.099 350.014 457.804 350.014C457.509 350.014 457.871 350.358 458.606 350.779ZM312.224 354.391L310.108 356.664L312.383 354.55C314.498 352.582 314.903 352.117 314.498 352.117C314.41 352.117 313.386 353.14 312.224 354.391ZM333.429 358.036C333.405 358.496 334.17 359.58 335.126 360.445L336.865 362.015L335.46 360.411C334.687 359.528 333.924 358.444 333.763 358.002C333.511 357.311 333.465 357.316 333.429 358.036ZM413.122 358.706C413.122 358.798 413.904 359.58 414.861 360.445L416.6 362.015L415.028 360.276C413.562 358.655 413.122 358.292 413.122 358.706ZM414.726 362.551C415.725 363.581 416.662 364.424 416.809 364.424C416.957 364.424 416.261 363.581 415.262 362.551C414.263 361.521 413.326 360.677 413.179 360.677C413.032 360.677 413.727 361.521 414.726 362.551ZM307.871 364.96C307.871 366.872 307.968 367.655 308.087 366.699C308.205 365.742 308.205 364.177 308.087 363.22C307.968 362.264 307.871 363.047 307.871 364.96ZM418.74 364.96C419.889 366.137 420.95 367.1 421.098 367.1C421.245 367.1 420.425 366.137 419.275 364.96C418.126 363.782 417.065 362.819 416.917 362.819C416.77 362.819 417.59 363.782 418.74 364.96ZM293.957 367.1C293.957 369.012 294.056 369.795 294.174 368.839C294.293 367.882 294.293 366.317 294.174 365.361C294.056 364.404 293.957 365.187 293.957 367.1ZM170.831 366.564C170.831 367.594 170.94 368.017 171.076 367.501C171.21 366.987 171.21 366.143 171.076 365.628C170.94 365.113 170.831 365.534 170.831 366.564ZM213.124 365.343C213.936 365.465 215.141 365.462 215.8 365.336C216.456 365.208 215.791 365.108 214.319 365.112C212.849 365.117 212.31 365.22 213.124 365.343ZM420.88 369.24C422.627 371.007 424.178 372.451 424.325 372.451C424.473 372.451 423.163 371.007 421.416 369.24C419.668 367.475 418.118 366.029 417.97 366.029C417.823 366.029 419.133 367.475 420.88 369.24ZM171.957 370.846C171.957 373.054 172.052 373.956 172.167 372.852C172.283 371.749 172.283 369.942 172.167 368.839C172.052 367.735 171.957 368.639 171.957 370.846ZM343.554 367.267C343.554 367.36 344.337 368.141 345.293 369.006L347.032 370.578L345.46 368.839C343.996 367.218 343.554 366.854 343.554 367.267ZM223.684 369.407C223.684 369.5 224.467 370.283 225.423 371.148L227.162 372.718L225.592 370.979C224.126 369.358 223.684 368.994 223.684 369.407ZM424.894 371.527C424.894 371.609 426.76 373.474 429.041 375.675L433.188 379.676L429.189 375.528C425.473 371.677 424.894 371.136 424.894 371.527ZM193.965 375.261L191.309 378.069L194.119 375.415C195.663 373.954 196.927 372.69 196.927 372.605C196.927 372.205 196.433 372.649 193.965 375.261ZM170.831 374.591C170.831 375.621 170.94 376.044 171.076 375.528C171.21 375.014 171.21 374.17 171.076 373.655C170.94 373.14 170.831 373.561 170.831 374.591ZM502.722 377.937L501.15 379.676L502.889 378.104C503.846 377.239 504.628 376.456 504.628 376.365C504.628 375.95 504.186 376.316 502.722 377.937ZM230.231 378.338C230.231 379.368 230.341 379.789 230.475 379.275C230.609 378.759 230.609 377.915 230.475 377.401C230.341 376.885 230.231 377.308 230.231 378.338ZM358.269 378.253C358.852 378.942 359.813 379.754 360.404 380.057C361.54 380.64 361.375 380.46 358.809 378.33C357.263 377.046 357.245 377.044 358.269 378.253ZM432.118 380.478C433.567 381.95 434.874 383.154 435.021 383.154C435.169 383.154 434.103 381.95 432.654 380.478C431.205 379.006 429.898 377.802 429.75 377.802C429.603 377.802 430.669 379.006 432.118 380.478ZM498.448 380.077L496.334 382.351L498.607 380.236C499.858 379.071 500.882 378.048 500.882 377.961C500.882 377.557 500.417 377.961 498.448 380.077ZM315.193 381.816C316.791 383.434 318.219 384.758 318.366 384.758C318.513 384.758 317.326 383.434 315.726 381.816C314.128 380.196 312.7 378.873 312.553 378.873C312.405 378.873 313.593 380.196 315.193 381.816ZM435.596 381.816C436.595 382.846 437.532 383.689 437.679 383.689C437.827 383.689 437.131 382.846 436.132 381.816C435.133 380.786 434.196 379.943 434.049 379.943C433.901 379.943 434.597 380.786 435.596 381.816ZM357.738 381.007C357.55 381.313 357.771 381.398 358.262 381.21C358.732 381.03 359.642 381.331 360.297 381.885L361.481 382.887L360.461 381.682C359.381 380.406 358.278 380.133 357.738 381.007ZM319.206 383.689C320.356 384.867 321.417 385.829 321.562 385.829C321.71 385.829 320.889 384.867 319.74 383.689C318.59 382.512 317.529 381.549 317.384 381.549C317.236 381.549 318.057 382.512 319.206 383.689ZM495.512 384.626L492.588 387.703L495.665 384.777C498.524 382.06 498.987 381.549 498.589 381.549C498.506 381.549 497.122 382.933 495.512 384.626ZM174.453 384.429C174.453 385.003 176.044 387.97 176.354 387.97C176.5 387.97 176.223 387.187 175.736 386.231C174.743 384.277 174.453 383.869 174.453 384.429ZM436.667 384.392C436.667 384.483 437.45 385.266 438.406 386.131L440.145 387.703L438.573 385.964C437.108 384.343 436.667 383.977 436.667 384.392ZM440.925 386.498C443.144 388.86 443.623 389.286 443.623 388.883C443.623 388.798 442.48 387.654 441.082 386.342L438.539 383.956L440.925 386.498ZM321.078 387.167C322.077 388.197 323.015 389.041 323.161 389.041C323.308 389.041 322.612 388.197 321.613 387.167C320.614 386.137 319.678 385.294 319.53 385.294C319.383 385.294 320.08 386.137 321.078 387.167ZM490.957 387.568L488.841 389.843L491.116 387.727C493.231 385.761 493.636 385.294 493.231 385.294C493.145 385.294 492.121 386.317 490.957 387.568ZM325.091 389.041C326.542 390.511 327.847 391.716 327.995 391.716C328.142 391.716 327.076 390.511 325.627 389.041C324.177 387.568 322.871 386.365 322.723 386.365C322.578 386.365 323.642 387.568 325.091 389.041ZM223.918 390.78L222.346 392.519L224.085 390.947C225.706 389.481 226.072 389.041 225.657 389.041C225.566 389.041 224.783 389.823 223.918 390.78ZM224.755 391.448C223.455 392.772 222.512 393.856 222.659 393.856C222.806 393.856 223.99 392.772 225.291 391.448C226.589 390.123 227.532 389.041 227.387 389.041C227.239 389.041 226.055 390.123 224.755 391.448ZM371.38 389.208C371.38 389.299 372.163 390.082 373.119 390.947L374.86 392.519L373.288 390.78C371.822 389.158 371.38 388.793 371.38 389.208ZM371.916 391.348C371.916 391.439 372.698 392.222 373.655 393.087L375.394 394.659L373.823 392.92C372.358 391.299 371.916 390.935 371.916 391.348ZM334.179 399.342L328.302 405.362L334.323 399.485C339.916 394.025 340.587 393.321 340.2 393.321C340.122 393.321 337.412 396.029 334.179 399.342ZM518.776 397.736L517.204 399.475L518.943 397.903C519.9 397.04 520.682 396.257 520.682 396.164C520.682 395.751 520.24 396.115 518.776 397.736ZM181.409 397.099C181.409 397.41 181.631 397.528 181.903 397.361C182.175 397.192 183.259 397.562 184.312 398.184C185.363 398.805 186.225 399.193 186.225 399.046C186.225 398.681 182.542 396.532 181.913 396.532C181.636 396.532 181.409 396.788 181.409 397.099ZM454.861 397.77C454.861 397.903 455.746 398.684 456.825 399.509C457.906 400.333 458.621 400.734 458.415 400.4C457.991 399.715 454.861 397.398 454.861 397.77ZM460.748 403.683C460.748 403.83 461.47 404.466 462.353 405.095C463.236 405.723 463.958 406.116 463.958 405.969C463.958 405.822 463.236 405.188 462.353 404.559C461.47 403.93 460.748 403.536 460.748 403.683ZM472.65 410.227C473.211 410.813 473.748 410.998 473.997 410.69C474.225 410.408 474.315 410.23 474.199 410.292C474.081 410.356 473.475 410.148 472.851 409.829C471.767 409.275 471.759 409.292 472.65 410.227ZM321.613 414.191C320.984 415.074 320.591 415.797 320.739 415.797C320.884 415.797 321.52 415.074 322.149 414.191C322.777 413.308 323.172 412.586 323.025 412.586C322.877 412.586 322.242 413.308 321.613 414.191ZM317.886 420.042C317.582 420.612 317.357 421.635 317.387 422.316C317.431 423.312 317.519 423.23 317.837 421.904C318.055 420.995 318.405 419.971 318.617 419.629C318.828 419.287 318.875 419.007 318.721 419.007C318.566 419.007 318.191 419.474 317.886 420.042ZM523.894 424.091C524.891 425.121 525.829 425.965 525.976 425.965C526.124 425.965 525.426 425.121 524.427 424.091C523.43 423.061 522.492 422.218 522.345 422.218C522.199 422.218 522.895 423.061 523.894 424.091ZM373.928 423.667C374.594 423.795 375.557 423.79 376.07 423.656C376.581 423.521 376.037 423.418 374.86 423.423C373.682 423.43 373.263 423.539 373.928 423.667ZM527.887 424.954C527.648 425.709 527.848 426.374 528.492 426.96C529.387 427.776 529.405 427.774 528.77 426.926C528.393 426.425 528.243 425.522 528.433 424.92C528.624 424.317 528.66 423.824 528.513 423.824C528.367 423.824 528.086 424.332 527.887 424.954ZM360.926 431.984L358.27 434.794L361.08 432.138C362.624 430.677 363.888 429.413 363.888 429.328C363.888 428.93 363.392 429.374 360.926 431.984ZM529.245 429.878C529.245 429.97 530.028 430.753 530.984 431.617L532.723 433.188L531.151 431.449C529.685 429.827 529.245 429.464 529.245 429.878ZM358.509 432.786L356.664 434.794L358.671 432.95C360.54 431.232 360.925 430.78 360.515 430.78C360.427 430.78 359.523 431.683 358.509 432.786ZM539.553 433.839C540.367 433.964 541.57 433.959 542.229 433.833C542.887 433.705 542.22 433.605 540.75 433.608C539.278 433.613 538.739 433.716 539.553 433.839ZM352.839 437.014C353.559 437.222 353.759 437.661 353.574 438.629C353.409 439.489 353.503 439.775 353.838 439.44C354.664 438.613 354.077 436.957 352.912 436.838C351.981 436.741 351.971 436.764 352.839 437.014ZM526.817 440.547L524.16 443.356L526.97 440.7C529.581 438.233 530.024 437.737 529.625 437.737C529.541 437.737 528.277 439.001 526.817 440.547ZM556.535 442.821C557.534 443.851 558.471 444.694 558.618 444.694C558.766 444.694 558.07 443.851 557.071 442.821C556.072 441.791 555.135 440.948 554.988 440.948C554.841 440.948 555.538 441.791 556.535 442.821ZM579.948 453.098C580.61 453.226 581.694 453.226 582.356 453.098C583.019 452.97 582.477 452.867 581.152 452.867C579.827 452.867 579.285 452.97 579.948 453.098ZM493.39 453.938C493.39 454.018 495.257 455.885 497.538 458.086L501.686 462.086L497.685 457.938C493.97 454.087 493.39 453.547 493.39 453.938ZM549.55 459.008L547.706 461.015L549.714 459.171C551.58 457.455 551.965 457.002 551.558 457.002C551.467 457.002 550.565 457.904 549.55 459.008ZM561.324 461.15L559.48 463.155L561.486 461.312C563.354 459.596 563.739 459.142 563.329 459.142C563.241 459.142 562.337 460.046 561.324 461.15ZM457.671 464.226C457.678 465.404 457.788 465.821 457.915 465.156C458.043 464.49 458.038 463.527 457.904 463.016C457.771 462.504 457.666 463.049 457.671 464.226ZM359.733 465.564C359.733 466.594 359.842 467.015 359.977 466.501C360.111 465.985 360.111 465.142 359.977 464.628C359.842 464.112 359.733 464.534 359.733 465.564ZM456.067 467.438C456.072 468.613 456.181 469.032 456.311 468.368C456.438 467.701 456.433 466.738 456.299 466.226C456.165 465.715 456.06 466.26 456.067 467.438ZM448.975 468.775C449.603 469.658 450.239 470.38 450.386 470.38C450.532 470.38 450.139 469.658 449.51 468.775C448.881 467.891 448.246 467.169 448.099 467.169C447.951 467.169 448.346 467.891 448.975 468.775ZM360.813 470.113C360.818 471.289 360.928 471.708 361.057 471.043C361.185 470.377 361.18 469.414 361.046 468.901C360.912 468.391 360.807 468.936 360.813 470.113ZM542.758 478.674C542.764 479.851 542.874 480.271 543.002 479.604C543.129 478.939 543.124 477.976 542.99 477.464C542.856 476.953 542.751 477.497 542.758 478.674ZM456.466 478.039C456.466 478.132 457.249 478.915 458.205 479.778L459.944 481.35L458.374 479.611C456.908 477.99 456.466 477.626 456.466 478.039ZM460.19 480.146C461.502 481.545 462.646 482.688 462.731 482.688C463.134 482.688 462.708 482.208 460.345 479.991L457.804 477.605L460.19 480.146ZM107.16 478.8C108.558 478.91 110.846 478.91 112.244 478.8C113.642 478.69 112.498 478.6 109.701 478.6C106.906 478.6 105.761 478.69 107.16 478.8ZM541.226 485.899C541.226 489.871 541.312 491.497 541.413 489.511C541.516 487.525 541.516 484.273 541.413 482.286C541.312 480.3 541.226 481.926 541.226 485.899ZM104.206 479.863C105.155 479.982 106.84 479.984 107.951 479.868C109.061 479.752 108.283 479.655 106.223 479.653C104.163 479.65 103.254 479.745 104.206 479.863ZM111.718 479.865C112.68 479.984 114.126 479.982 114.93 479.86C115.734 479.737 114.946 479.64 113.181 479.643C111.414 479.647 110.756 479.747 111.718 479.865ZM604.852 483.49C604.855 484.962 604.958 485.501 605.082 484.687C605.205 483.873 605.202 482.67 605.074 482.011C604.948 481.353 604.847 482.019 604.852 483.49ZM463.155 485.363C464.903 487.13 466.453 488.574 466.601 488.574C466.748 488.574 465.438 487.13 463.691 485.363C461.944 483.598 460.393 482.152 460.246 482.152C460.098 482.152 461.408 483.598 463.155 485.363ZM510.515 486.701C512.411 488.615 514.083 490.179 514.229 490.179C514.376 490.179 512.945 488.615 511.051 486.701C509.154 484.788 507.483 483.223 507.335 483.223C507.188 483.223 508.619 484.788 510.515 486.701ZM356.354 489.242C356.196 490.394 356.277 491.049 356.546 490.78C356.805 490.521 356.929 489.619 356.824 488.774C356.647 487.359 356.61 487.395 356.354 489.242ZM467.704 488.186C467.704 488.268 469.571 490.133 471.852 492.334L475.998 496.335L471.998 492.187C468.284 488.335 467.704 487.795 467.704 488.186ZM515.331 489.912C516.33 490.942 517.267 491.785 517.414 491.785C517.561 491.785 516.864 490.942 515.867 489.912C514.868 488.882 513.931 488.039 513.784 488.039C513.636 488.039 514.332 488.882 515.331 489.912ZM550.318 494.193C550.32 497.725 550.406 499.1 550.511 497.25C550.616 495.398 550.614 492.509 550.509 490.828C550.403 489.148 550.318 490.662 550.318 494.193ZM336.063 494.193C334.762 495.517 333.819 496.601 333.966 496.601C334.114 496.601 335.298 495.517 336.598 494.193C337.896 492.87 338.84 491.785 338.692 491.785C338.547 491.785 337.363 492.87 336.063 494.193ZM517.448 494.06C519.667 496.423 520.147 496.847 520.147 496.446C520.147 496.359 519.004 495.216 517.606 493.903L515.063 491.517L517.448 494.06ZM520.414 495.53C521.563 496.708 522.624 497.672 522.772 497.672C522.919 497.672 522.099 496.708 520.949 495.53C519.8 494.353 518.739 493.39 518.591 493.39C518.446 493.39 519.264 494.353 520.414 495.53ZM542.758 495.264C542.764 496.441 542.874 496.86 543.002 496.194C543.129 495.529 543.124 494.564 542.99 494.053C542.856 493.541 542.751 494.086 542.758 495.264ZM475.463 497.672C476.914 499.143 478.219 500.348 478.366 500.348C478.513 500.348 477.448 499.143 475.998 497.672C474.549 496.2 473.242 494.997 473.095 494.997C472.949 494.997 474.014 496.2 475.463 497.672ZM478.292 496.601C478.163 497.484 478.256 498.206 478.499 498.206C478.743 498.206 478.943 497.484 478.943 496.601C478.943 495.719 478.849 494.997 478.735 494.997C478.622 494.997 478.422 495.719 478.292 496.601ZM391.361 500.348C391.361 502.555 391.454 503.458 391.57 502.354C391.685 501.25 391.685 499.444 391.57 498.34C391.454 497.237 391.361 498.141 391.361 500.348ZM541.677 498.206C541.677 499.236 541.787 499.659 541.921 499.143C542.055 498.629 542.055 497.785 541.921 497.27C541.787 496.755 541.677 497.176 541.677 498.206ZM332.545 498.457C332.07 499.184 331.764 499.994 331.864 500.26C331.965 500.525 332.44 499.93 332.917 498.938C333.94 496.818 333.767 496.593 332.545 498.457ZM543.282 501.417C543.282 502.447 543.391 502.87 543.527 502.354C543.661 501.84 543.661 500.996 543.527 500.481C543.391 499.966 543.282 500.387 543.282 501.417ZM340.076 502.488C341.226 503.666 342.287 504.628 342.434 504.628C342.58 504.628 341.761 503.666 340.611 502.488C339.46 501.311 338.401 500.348 338.253 500.348C338.106 500.348 338.926 501.311 340.076 502.488ZM542.222 504.361C542.229 505.537 542.338 505.956 542.466 505.292C542.594 504.625 542.589 503.662 542.455 503.15C542.32 502.639 542.217 503.184 542.222 504.361ZM550.773 505.699C550.773 506.729 550.884 507.15 551.019 506.634C551.153 506.12 551.153 505.277 551.019 504.763C550.884 504.247 550.773 504.668 550.773 505.699ZM337.667 510.247C339.265 511.866 340.695 513.191 340.842 513.191C340.988 513.191 339.801 511.866 338.203 510.247C336.604 508.629 335.175 507.304 335.028 507.304C334.882 507.304 336.069 508.629 337.667 510.247ZM542.758 510.782C542.764 511.96 542.874 512.379 543.002 511.712C543.129 511.047 543.124 510.083 542.99 509.572C542.856 509.061 542.751 509.605 542.758 510.782ZM544.374 514.26C544.374 515.585 544.479 516.127 544.606 515.465C544.732 514.802 544.732 513.718 544.606 513.057C544.479 512.395 544.374 512.935 544.374 514.26ZM518.676 515.598C518.683 516.775 518.793 517.195 518.92 516.528C519.048 515.863 519.043 514.9 518.909 514.388C518.775 513.877 518.67 514.421 518.676 515.598ZM543.311 517.204C543.314 518.675 543.419 519.214 543.542 518.4C543.665 517.588 543.661 516.382 543.534 515.724C543.408 515.068 543.306 515.732 543.311 517.204ZM381.415 516.77C380.899 516.905 380.478 517.237 380.478 517.511C380.478 518.267 381.338 518.102 382.083 517.204C382.45 516.762 382.659 516.43 382.549 516.463C382.441 516.497 381.929 516.636 381.415 516.77ZM312.754 517.519C311.893 518.912 314.048 519.086 330.477 518.943L347.568 518.794L330.326 518.668C315.255 518.557 313.124 518.441 313.393 517.738C313.748 516.813 313.288 516.654 312.754 517.519ZM442.754 517.606C443.039 518.492 440.543 518.549 396.114 518.673L349.172 518.803L395.967 518.943C442.279 519.081 444.115 519.024 443.016 517.466C442.544 516.8 442.502 516.823 442.754 517.606ZM544.924 522.287C544.924 523.907 545.024 524.568 545.147 523.759C545.269 522.95 545.269 521.626 545.147 520.817C545.024 520.006 544.924 520.669 544.924 522.287ZM543.846 527.372C543.85 528.844 543.955 529.381 544.077 528.569C544.2 527.755 544.197 526.551 544.069 525.893C543.943 525.235 543.842 525.9 543.846 527.372ZM545.451 530.047C545.455 531.519 545.559 532.057 545.682 531.244C545.805 530.431 545.802 529.227 545.676 528.569C545.548 527.91 545.448 528.575 545.451 530.047ZM524.755 529.682C524.606 529.923 525.194 530.016 526.062 529.89C526.929 529.762 527.638 529.564 527.638 529.451C527.638 529.044 525.02 529.253 524.755 529.682ZM544.408 536.737C544.408 538.944 544.502 539.846 544.618 538.742C544.734 537.639 544.734 535.833 544.618 534.729C544.502 533.625 544.408 534.529 544.408 536.737ZM534.221 536.201C534.221 537.821 534.321 538.482 534.444 537.673C534.567 536.863 534.567 535.54 534.444 534.729C534.321 533.92 534.221 534.582 534.221 536.201ZM546.021 543.157C546.021 545.659 546.113 546.683 546.226 545.432C546.337 544.181 546.337 542.134 546.226 540.883C546.113 539.633 546.021 540.657 546.021 543.157ZM533.126 542.89C533.131 544.068 533.24 544.487 533.368 543.82C533.496 543.156 533.493 542.191 533.358 541.68C533.224 541.168 533.119 541.713 533.126 542.89ZM555.055 543.693C555.055 544.723 555.165 545.145 555.299 544.629C555.433 544.113 555.433 543.272 555.299 542.756C555.165 542.242 555.055 542.663 555.055 543.693ZM534.767 546.904C534.767 548.816 534.863 549.599 534.983 548.643C535.101 547.687 535.101 546.121 534.983 545.165C534.863 544.208 534.767 544.991 534.767 546.904ZM525.5 547.621C526.235 548.458 527.318 549.391 527.907 549.694C529.034 550.274 529.001 550.239 526.035 547.703L524.164 546.101L525.5 547.621ZM544.958 551.453C544.96 554.395 545.05 555.532 545.158 553.976C545.266 552.421 545.266 550.013 545.157 548.625C545.045 547.236 544.957 548.509 544.958 551.453ZM555.684 558.142C555.684 562.997 555.764 564.985 555.864 562.557C555.962 560.128 555.962 556.154 555.864 553.727C555.764 551.299 555.684 553.285 555.684 558.142ZM532.387 551.318C532.79 551.834 533.332 552.255 533.591 552.255C533.85 552.255 534.041 551.834 534.018 551.318C533.992 550.722 533.876 550.634 533.699 551.073C533.471 551.638 533.26 551.638 532.536 551.073C531.747 550.455 531.731 550.482 532.387 551.318ZM546.594 562.958C546.594 568.99 546.673 571.46 546.768 568.443C546.863 565.426 546.863 560.488 546.768 557.472C546.673 554.456 546.594 556.924 546.594 562.958ZM533.615 555.492C533.928 556.391 534.284 557.027 534.405 556.906C534.67 556.64 533.66 553.86 533.299 553.86C533.16 553.86 533.303 554.595 533.615 555.492ZM535.79 558.676C535.79 559.707 535.9 560.128 536.034 559.612C536.17 559.098 536.17 558.255 536.034 557.741C535.9 557.225 535.79 557.646 535.79 558.676ZM522.421 561.207C523.525 561.322 525.331 561.322 526.435 561.207C527.539 561.091 526.635 560.998 524.427 560.998C522.22 560.998 521.318 561.091 522.421 561.207ZM545.422 568.309C545.422 569.339 545.533 569.76 545.667 569.246C545.802 568.73 545.802 567.887 545.667 567.373C545.533 566.857 545.422 567.279 545.422 568.309ZM505.932 569.513L504.361 571.252L506.1 569.68C507.057 568.815 507.84 568.034 507.84 567.941C507.84 567.528 507.397 567.892 505.932 569.513ZM600.027 573.125C600.027 574.45 600.132 574.992 600.26 574.329C600.386 573.667 600.386 572.583 600.26 571.922C600.132 571.258 600.027 571.8 600.027 573.125ZM502.077 577.405C502.077 578.436 502.187 578.858 502.321 578.342C502.455 577.828 502.455 576.985 502.321 576.469C502.187 575.955 502.077 576.376 502.077 577.405ZM508.106 585.696C509.302 586.688 512.693 588.522 511.853 587.72C511.558 587.44 510.355 586.669 509.177 586.007C508 585.347 507.519 585.207 508.106 585.696Z" fill="#9A9999"/>
</svg>
